<svg xmlns="http://www.w3.org/2000/svg" xmlns:xlink="http://www.w3.org/1999/xlink" width="277.7" height="481.368" viewBox="0 0 277.7 481.368">
  <defs>
    <linearGradient id="linear-gradient" x1="0.187" y1="0.02" x2="0.75" y2="0.978" gradientUnits="objectBoundingBox">
      <stop offset="0.455" stop-color="#1c68b2"/>
      <stop offset="0.929" stop-color="#4b8ecd"/>
    </linearGradient>
  </defs>
  <g id="Grupo_10030" data-name="Grupo 10030" transform="translate(-186.602 -214.678)">
    <path id="Trazado_1634" data-name="Trazado 1634" d="M326.341,518.731,440.9,558.873l-136.355,28.1L186.6,540Z" transform="translate(0 96.878)" fill="#040405" fill-rule="evenodd" opacity="0.1"/>
    <path id="Trazado_1635" data-name="Trazado 1635" d="M308.253,639.39S220,605.335,220,604.156s-4.336-276.127-4.336-276.127,94.391,15.552,92.584,15.234S308.253,639.39,308.253,639.39Z" transform="translate(9.261 36.116)" fill="#1c68b2" fill-rule="evenodd"/>
    <path id="Trazado_1636" data-name="Trazado 1636" d="M285.15,388.4l.965,231.75,92.526-17.5Z" transform="translate(31.399 55.353)" fill="#4b8ecd" fill-rule="evenodd"/>
    <path id="Trazado_1637" data-name="Trazado 1637" d="M263.05,326.376V296.74a2.336,2.336,0,0,0,1.254,1.912,5.678,5.678,0,0,0,3.163.857h.067a5.362,5.362,0,0,0,3.1-.857,2.31,2.31,0,0,0,1.319-1.945v34.251a2.3,2.3,0,0,1-1.319,1.978,5.362,5.362,0,0,1-3.1.857h-.067a5.678,5.678,0,0,1-3.163-.857,2.307,2.307,0,0,1-1.254-1.978v-4.582Z" transform="translate(24.358 26.136)" fill="#b2bbe1" fill-rule="evenodd"/>
    <path id="Trazado_1638" data-name="Trazado 1638" d="M287.047,321.447v-2.571l20.308-3.593,51.293,9.033,1.055,6.066-34.151,6-2.243-12.692,8.836-1.549-9.4-1.648-.43-2.505-.2.066-4.218-.725-5.934.989.131.066.034.264-4.583-.791Zm113.731,10.318-29.6,5.209-1.879-10.78,31.548,5.571ZM316.322,319.04v.132l-4.221-.824Zm-9.034,29.208L215.669,332.09c22.227-4.216,62.478-11.633,62.478-11.633v2.571l-51.161,9,24.591,4.286,61.745-10.879,3.725,21.1Z" transform="translate(9.261 32.055)" fill="#7bb1e2" fill-rule="evenodd"/>
    <path id="Trazado_1639" data-name="Trazado 1639" d="M353.832,642.006l34.151-6.031.463,2.6,4.152.725v-.2l6.067-1.056-.659-3.856,3.956-.692,25.318,4.483L350.93,651.5l-25.318-4.483,18.23-3.231.694,4.022,4.152.79v-.33l6.067-1.054Zm15.229-259.767q-5.226,9.059-14.538,8.077a23.655,23.655,0,0,1-5.965-1.483c-.174-.062-.351-.128-.529-.2q-.328-.132-.725-.33-1.618-.7-3.231-1.418a174.692,174.692,0,0,1-18.692-9.989q-2.069-1.292-4.121-2.637-.706-.512-1.417-1.055-1.173-.868-2.374-1.813-3.368-2.648-6.987-5.835-3.139-2.767-6.463-5.934-.6-.591-1.22-1.187a9.175,9.175,0,0,1,.791-1.286,7.024,7.024,0,0,1,4.285-2.67q.461.33.727.527,5.01,4.219,9.89,8.307c.27.225.545.444.824.659a83.7,83.7,0,0,0,7.844,5.7q1.406.9,2.835,1.747,1.721,1,3.5,1.912a78.892,78.892,0,0,0,8.9,3.923q2.172.785,4.383,1.451,1.962.6,3.956,1.088,1.254.316,2.505.593.764.174,1.518.33A83.317,83.317,0,0,0,369.061,382.239Z" transform="translate(37.023 44.545)" fill="#040405" fill-rule="evenodd" opacity="0.1"/>
    <path id="Trazado_1640" data-name="Trazado 1640" d="M394.683,380.2a12.137,12.137,0,0,1-8.506-6.527,43.239,43.239,0,0,1-4.286-13.846l-1.119-4.022c-.17-.094-.335-.182-.495-.264h.165a25.686,25.686,0,0,0-1.319-3.033A5.873,5.873,0,0,0,378,351.055a10.128,10.128,0,0,0-2.174-1.648q-1.847-.989-2.7-1.516a29.246,29.246,0,0,0-2.9-1.45l-1.781-10.087,29.6-5.208v22.812a16.438,16.438,0,0,0-1.253,1.912q-.924,1.582-2.438,3.956a11.684,11.684,0,0,0-1.584,5.868,47.745,47.745,0,0,0,0,6.132v.593a2.409,2.409,0,0,0,1.188,1.978h.066a.189.189,0,0,0,.13.066q.866.767,1.088,5.34A5.5,5.5,0,0,0,394.683,380.2Zm-15.889,4.187q-1.017-.273-2.012-.56l-3-17.076c.08.133.169.266.264.4q.463,2.176,1.714,6.461,1.254,4.154,1.648,6.263A7.193,7.193,0,0,0,378.794,384.383Zm-58.219-61.316-.559-3.2,9.4,1.648Zm33.066,51.13a111.113,111.113,0,0,1-17.176-11.868q-1.12-.924-2.108-1.846a6.257,6.257,0,0,0-2.7-.066,10.375,10.375,0,0,0,.262-1.187,1.57,1.57,0,0,0,0-.659l.067-.132v-.4a.238.238,0,0,0-.034-.066l23.9-4.154L357.5,373.5Zm-28.416-24.263-.891-5.077,30.2-5.34.462,5.275Zm10.285,27.493-5.243.923-1.22-6.857Q332.37,374.66,335.51,377.427Zm14.9,11.34-17.767,3.1-.792-4.483,13.021-2.308q.712.542,1.418,1.055Q348.339,387.475,350.409,388.767Zm47.635,207.024v29.537l-23.47,4.152-3.2-18.461,6.889-1.185,1.615,17.6,10.219-1.714-2.472-28.087Zm-24.493-39.724.165,2.011-11.4,2.01-.33-1.944Zm3.956,43.35.1,1.253-7.811,1.352-.231-1.221Zm9.3-11.076-3-34.086,12.328-2.176,1.912,10.811v18.66l-.131.46a3.247,3.247,0,0,0,.131,2.045v2.308ZM363.86,568.989l10.714-1.878,2.077,23.043-8.8,1.549Zm29.273-33.625,1.35,7.682-10.35,1.846a13.012,13.012,0,0,0,3.626-2.77,7.779,7.779,0,0,0,1.515-2.24,16.9,16.9,0,0,1,1.648-2.375.567.567,0,0,0,.067-.262,11.945,11.945,0,0,1,1.251-1.319A5.42,5.42,0,0,1,393.134,535.364Zm-20.473,10.384.1,1.154-12.428,2.21-3.858-22.12,14.34-2.472,1.648,18.988a2.885,2.885,0,0,0-.132.857v.065l.33,1.254Zm-2.867-32.966.229,2.637-15.13,2.606-.429-2.538Zm-.89-10.119.066.889-16.153,2.836-3.791-21.56,8.241-1.418q3.329,5.311,9,14.406Zm-15.329-31.152a12.439,12.439,0,0,0,0,3.428l-6.1,1.055-.593-3.3Zm-11.9-28.581,21.627-3.791,1.779,20.373q-1.147.461-2.108.856c-.309.124-.6.256-.891.4L345.3,463.731Zm-2.242-12.758,22.715-4.022.361,4.088-22.382,3.857Zm32.141-14.9-.46-5.143.889,5.077Zm-37.382-14.5,25.349-4.417,1.813,20.7-23.57,4.154Zm53.93,47.437-7.185-40.877c.074.211.15.421.231.626q.724,1.845,1.648,3.824,4.745,12.065,6.064,19.779A38.249,38.249,0,0,1,388.121,448.2Zm-9.2,6.033q-1.926.627-3.824,1.35l-2.735-31.25,1.22-.232Zm8.111,46.152-2.242.4q-.263-.736-.463-1.45-1.845-6.529-2.439-9.3a18.487,18.487,0,0,0-1.912-5.339,9.07,9.07,0,0,0-2.6-3.033l-.034-.495q3.145.1,6.3.1Zm11.009,3.988-4.086-23.241q2.063,0,4.086,0ZM325.322,408.25l4.847,27.592-2.406.4Zm12.2,69.491-6,1.022-2.9-33.56,3.1-.526Zm1.551,8.833,5.835,33.2-9.626,1.648-2.967-33.692Zm-27.4,153.983q-.13-1.829-.46-3.758-.265-1.187-1.781-7.649-.593-2.108-1.253-4.68c-.087-.4-.175-.769-.262-1.121a1.079,1.079,0,0,1-.067-.33,88.335,88.335,0,0,1-1.845-23.209q.059-1.948.229-4.548l5.571,4.352,13.054-16.747-9.031-7.055.066-.067a1.666,1.666,0,0,1,.394-.2c0-.087.022-.133.066-.133a35.927,35.927,0,0,1-.264-11.141q.461-3.628,2.111-11.076,1.648-7.318,2.108-11.142a34.522,34.522,0,0,0-.131-8.571,21.551,21.551,0,0,0-.4-2.505q-2.112-7.912-4.945-17.34-1.913-6.462-5.144-16.483-.109-.328-.229-.659.714-4.69,1.813-9.3a74.485,74.485,0,0,0,1.713-13.846,33.341,33.341,0,0,0-3.494-15.823,16.433,16.433,0,0,0-2.834-3.231,6.91,6.91,0,0,0-2.111-1.055V347.626l9.758-1.714.066.363-4.681.857L335.08,634.987l10.155-1.716-1.518-17.437,17.571-3.066,3.264,18.461Zm34.813-111.819,5.835,33.1-13.286,2.308-2.9-33.625Zm7.383,42,5.835,33.065-16.911,2.933-2.9-33.558ZM309.4,318.023l1.185,6.791-61.745,10.879-24.591-4.286,51.161-9v2.011a2.307,2.307,0,0,0,1.254,1.978,5.677,5.677,0,0,0,3.163.857h.067a5.362,5.362,0,0,0,3.1-.857,2.3,2.3,0,0,0,1.319-1.978v-3.593l20.5-3.593Z" transform="translate(11.996 32.676)" fill="#4b8ecd" fill-rule="evenodd"/>
    <path id="Trazado_1641" data-name="Trazado 1641" d="M388.213,443.139c-.09.044-.22.109-.4.2a18.7,18.7,0,0,1-2.373.593q-.989.265-2.174.46a39.972,39.972,0,0,1-4.353.4q-5.473.263-10.022.066-2.439-.065-4.746-.264-.661-2.571-3.693-11.472a71.3,71.3,0,0,1-3.1-12.659q-.176-1.29-.264-2.505a68.361,68.361,0,0,1,.264-9.23q.3-3.412.858-7.45a66.621,66.621,0,0,0,.592-11.307q-.069-1.446-.231-2.736a24.981,24.981,0,0,0-.429-2.571q-.38-1.555-.791-2.934-.443-1.47-.923-2.736-.856-1.913-1.648-3.363a5.281,5.281,0,0,0-2.571-3.428.748.748,0,0,0-.262-.264q2.336-.04,4.482-.165a66.873,66.873,0,0,0,10.913-1.418q1.592-.35,3-.791a14.338,14.338,0,0,0,5.342-2.835,4.742,4.742,0,0,0,.922-1.385l-.066-.033a48.693,48.693,0,0,0,7.846,1.747q3.693.726,6.066,5.538,2.439,4.812.463,11.01-1.978,6.262-3.43,12.725-1.582,6.527-2.967,13.846a43.589,43.589,0,0,0,.792,13.648,70.093,70.093,0,0,0,1.648,7.186q.659,2.767,1.779,6.2.2.989.593,3.428A2.856,2.856,0,0,1,388.213,443.139Z" transform="translate(52.684 47.994)" fill="#e14f92" fill-rule="evenodd"/>
    <path id="Trazado_1642" data-name="Trazado 1642" d="M346.854,338.535l1.781,10.087.165.989a10.231,10.231,0,0,0-2.869-.989q-1.187-.2-1.581.33a1.467,1.467,0,0,0-.264.659q-.2,1.252,1.648,3.033a18.051,18.051,0,0,0,2.108,1.714,2.138,2.138,0,0,1,.923,1.516q-.263,3.823,1.385,5.472a1.9,1.9,0,0,0,0,.989c.043.219.088.439.133.659q.526,1.913.79,2.967a9.555,9.555,0,0,0,1.121,2.967l3,17.076q-3.313-.959-6.527-2.11l-3.262-18.527-.89-4.978-.494-2.8-.165-.857-.494-2.9-.2-1.088-.857-4.945-1.416-8.077-.034-.132-2.273-12.955-2.672-15.2,5.934-1.055h.066l3.066,17.373ZM397.1,623.587l1.515,8.638,2.836,16.021.659,3.856-6.067,1.056-.659-3.824-2.834-16.054-1.913-10.813L384.5,587.754q2.435-.328,5.6-.659c.183-.021.357-.044.527-.066ZM292,320.733V320.6l5.868-.989H297.8l.2-.066.43,2.505.559,3.2,2.243,12.692,34.151-6,.133-.033v.1l2.174-.462v.033l1.253,6.758v.066l-36.592,6.4.4,2.176v.066l.891,5.077.131.824a2.273,2.273,0,0,0,.165,1.286c.069.231.135.45.2.659l.33,1.879q-.123.368-1.188.033a57.251,57.251,0,0,1-5.538-3.4l-.989-5.67-.066-.33-3.691-21.1-.957-5.373Zm40.053,55.646,3.856-.692,6.923-1.22,2.177-.33,1.185,6.857-3.461.593A106.914,106.914,0,0,1,332.054,376.379Zm-19.45,26.57,3.592,20.439,23.57-4.154,10.219-1.78.429-.066,1.945-.363,1.154,6.692-36.129,6.461.46,2.176.694,3.923,1.548,8.835,3.626,20.8,16.779-2.967a15.548,15.548,0,0,0-4.912,3.3,11.787,11.787,0,0,0-3.031,5.143L324.9,472.7l.4,2.176.593,3.3,1.549,8.835,3.791,21.56,16.153-2.836.361-.065,3.494,6.493-18.756,3.331.4,2.176.429,2.538,1.581,8.967,3.858,22.12,12.428-2.21.2-.032a1.486,1.486,0,0,0,.165.659c.307.352.593.483.857.4a.8.8,0,0,0,.33-.132q4.88-1.121,7.252-1.78a20.542,20.542,0,0,0,2.573-1.121l10.35-1.846,2.111-.4,1.319,6.923-36.262,6.394.33,2.177.33,1.944,1.549,8.9,3.987,22.715,8.8-1.549,10.152-1.813,11.241-1.978.626-.1a1.782,1.782,0,0,0,.628.231q.591,0,2.7-.264,1-.2,2.275-.4l1.088,6.461-36.262,6.4.463,2.109.231,1.221,1.582,9,3.2,18.461.856,4.945L388,630.544l2.044-.33,1.122,6.857-36.132,6.4.4,2.176,1.847,10.416.923,5.21-6.067,1.054-.923-5.174-2.834-16.219-1.452-8.208-3.264-18.461-1.582-8.968-5.835-33.063-1.548-8.9-5.835-33.1-1.582-8.967-5.835-33.2-1.551-8.835-5.835-33.065-1.549-8.836L306.636,404l-1.549-8.9-4.879-27.592a8.526,8.526,0,0,0,2.672.758,1.228,1.228,0,0,0,.79,0,6.709,6.709,0,0,0,2.571,4.22q.617.6,1.22,1.187l1.22,6.857,5.243-.923q3.62,3.189,6.987,5.835l-10.977,1.945.33,2.176.792,4.483Zm46.745,6.56,7.185,40.877a27.66,27.66,0,0,1-1.35,3.725q-2,.495-3.99,1.088L352,402.883a23.656,23.656,0,0,0,5.965,1.483A29.622,29.622,0,0,0,359.35,409.509Zm6.758,100.016a41.053,41.053,0,0,1-2.9-6.559l2.242-.4,1.845-.4,1.253,6.923Zm11.471,18.165A27.082,27.082,0,0,0,373,522.318l-6.857-38.932q3.165-.042,6.232-.067l4.086,23.241,9.759,55.217-.264,9.5-.133.132q-.328.724-.856,1.714H384.9q-.265.659-.529,1.253a30.786,30.786,0,0,1-1.713,2.835l-6.2-35.306-1.054-6.066a16.642,16.642,0,0,0,3.361-3.132q1.387-1.913.462-3.362A4.167,4.167,0,0,0,377.578,527.691Z" transform="translate(33.582 30.493)" fill="#ffd142" fill-rule="evenodd"/>
    <path id="Trazado_1643" data-name="Trazado 1643" d="M342.9,310.573l-5.934,1.055-4.22-.725-.131-.132,5.934-.989,4.22.791Zm-49.843,10.219-4.221-.692v.033l-.131-.066,5.934-.989,4.218.725h.067Z" transform="translate(32.531 30.302)" fill="#feab45" fill-rule="evenodd"/>
    <path id="Trazado_1644" data-name="Trazado 1644" d="M382.042,550.952a6.009,6.009,0,0,1,1.584,1.121h.065a12.845,12.845,0,0,1,.2,1.516l.262,1.713a1.236,1.236,0,0,1,.067.4q.328,2.176.922,6.066a20.239,20.239,0,0,1-1.978,1.846c-.262.044-.549.088-.856.132q-1.387.265-2.967.593-2.045.415-3.5.691-1.521.295-2.374.43-1.432.429-3.626.923c-.556.129-1.15.262-1.779.4a1.034,1.034,0,0,1-.4.132q-.928.19-1.714.363-2.241.483-3.363.824h-.065v-.265a.43.43,0,0,0-.265-.2v-.066a3.248,3.248,0,0,1-.131-2.045l.131-.46a4.893,4.893,0,0,1,.529-.923q1.165-.4,2.472-.76,1.058-.293,2.209-.559.87-.184,1.68-.363,3.628-.791,6-1.45,4.516-1.248,4.516-2.011a10.764,10.764,0,0,0-.858-3.89q-1.978.4-3.163.593c-.52.094-.98.171-1.386.231a12.239,12.239,0,0,1-1.648.165,6.013,6.013,0,0,1-2.439-.4q.265-.6.529-1.253h.066q.526-.989.856-1.714l.133-.132,9.756-1.516ZM369.055,443.418a55.475,55.475,0,0,1-6.792-.989c-.4-.082-.8-.169-1.187-.264a18.809,18.809,0,0,1-7.449-3.232c-.282-.236-.547-.479-.793-.724a8.028,8.028,0,0,1-1.845-2.769,27.658,27.658,0,0,0,1.35-3.725,38.249,38.249,0,0,0,.758-16.648q-1.317-7.716-6.064-19.779-.924-1.978-1.648-3.824c-.08-.206-.157-.415-.231-.626a29.624,29.624,0,0,1-1.386-5.143q9.312.983,14.538-8.077a2.681,2.681,0,0,0,.066-.461,4.964,4.964,0,0,0-.33-4.22q-1.185-2.045-4.615-2.769-1.533-.22-3.066-.527.926-.344,2.011-.659h.132a13.785,13.785,0,0,1,2.375.593,4.792,4.792,0,0,1,1.779.989l.2.2a.748.748,0,0,1,.262.264,5.281,5.281,0,0,1,2.571,3.428q.793,1.45,1.648,3.363.479,1.266.923,2.736.411,1.381.791,2.934a24.988,24.988,0,0,1,.429,2.571q.16,1.292.231,2.736a66.618,66.618,0,0,1-.592,11.307q-.562,4.037-.858,7.45a68.359,68.359,0,0,0-.264,9.23q.089,1.216.264,2.505a71.293,71.293,0,0,0,3.1,12.659Q368.4,440.847,369.055,443.418ZM358.8,503.646a27.08,27.08,0,0,1,4.582,5.373l-.462.2a1.416,1.416,0,0,0-.46.262A18.615,18.615,0,0,0,360.12,511a29.219,29.219,0,0,0-3.066,2.571q-.271.247-.526.495-4.652,4.219-5.274,4.78-1.659,1.559-4.549,4.351-.9.858-1.913,1.846-.922.857-1.846,1.648l-4.482,2.57c-.177.09-.352.177-.529.265h-.725a.732.732,0,0,1-.33-.265v-.065l-.33-1.254v-.065a2.885,2.885,0,0,1,.132-.857,3.388,3.388,0,0,1,.33-.659,7.437,7.437,0,0,1,2.7-2.637.448.448,0,0,0,.4-.2,7.081,7.081,0,0,0,1.779-1.978,15.865,15.865,0,0,0,3.89-2.177l.56-.427q4.1-3.163,5.769-4.648a13.662,13.662,0,0,0,3.626-4.747,3.552,3.552,0,0,0,.2-1.121,3.279,3.279,0,0,0-.694-1.648c-.033-.042-.066-.086-.1-.132a2.289,2.289,0,0,0-1.648-1.122,8.624,8.624,0,0,0-6.2,2.637,14.444,14.444,0,0,1-1.781,1.483,7.235,7.235,0,0,1-1.319.76v-1.055a10.451,10.451,0,0,1,.264-1.847v-.262q.067-.461.132-.857l.067-.066v-.2l.131-.4v-.593h.132v-.2c.053-.088.108-.177.165-.264a14.4,14.4,0,0,1,3.529-3.89,16.655,16.655,0,0,1,3.3-2.242c.526-.265,1.055-.505,1.581-.725l2.441-.4-1.254,1.978a38.551,38.551,0,0,0,3.825,3.956C358.611,503.451,358.709,503.549,358.8,503.646Z" transform="translate(47.777 49.165)" fill="#bc0957" fill-rule="evenodd"/>
    <path id="Trazado_1645" data-name="Trazado 1645" d="M381.369,365.634l.066.033a4.742,4.742,0,0,1-.922,1.385,14.338,14.338,0,0,1-5.342,2.835q-1.4.441-3,.791a66.874,66.874,0,0,1-10.913,1.418q-2.146.125-4.482.165l-.2-.2a4.794,4.794,0,0,0-1.779-.989,13.785,13.785,0,0,0-2.375-.593q2.374-.528,3.43-.857,1.12-.4,2.438-.857.581-.182,1.188-.33a44.816,44.816,0,0,1,10.813-1.385,15.5,15.5,0,0,0,3.559-.363,7.832,7.832,0,0,0,2.242-.89,8.251,8.251,0,0,0,1.518-1.516,2.11,2.11,0,0,0,.394.132q.858.328,1.714.659l.793.264c.087,0,.13.021.13.066l.4.132Zm.593,186.816,1.451-.2a6.665,6.665,0,0,1,.133,1.319A6.01,6.01,0,0,0,381.963,552.449Zm3.3,12.329q-1.054.133-2.176.33a20.236,20.236,0,0,0,1.978-1.846A5.339,5.339,0,0,0,385.259,564.779Zm-43.449-41.734a2.033,2.033,0,0,0,.264-.659,22.578,22.578,0,0,1,1.518-3.56,2.43,2.43,0,0,1,.066-.595.377.377,0,0,0,.131-.262,52.56,52.56,0,0,0,.2-5.274,1.854,1.854,0,0,1,.131-.791,7.243,7.243,0,0,0,1.319-.76,14.441,14.441,0,0,0,1.781-1.483,8.624,8.624,0,0,1,6.2-2.637,2.289,2.289,0,0,1,1.648,1.122c.033.046.066.09.1.132a3.28,3.28,0,0,1,.694,1.648,3.551,3.551,0,0,1-.2,1.121,13.661,13.661,0,0,1-3.626,4.747q-1.669,1.485-5.769,4.648l-.56.427A15.862,15.862,0,0,1,341.811,523.044Zm-5.011,7.713a.732.732,0,0,0,.33.265h.659a4.8,4.8,0,0,0-.593.2A1.335,1.335,0,0,1,336.8,530.757Zm25.912,34.879a9.531,9.531,0,0,1,.725-1.121c.4-.373.883-.8,1.449-1.287q.463-.388.989-.824,1.715-1.58,2.177-1.911c.109-.144.219-.3.33-.461A30.772,30.772,0,0,0,370.1,557.2a6.013,6.013,0,0,0,2.439.4,12.241,12.241,0,0,0,1.648-.165c.406-.059.866-.137,1.386-.231q1.185-.2,3.163-.593a10.764,10.764,0,0,1,.858,3.89q0,.762-4.516,2.011-2.371.659-6,1.45-.809.178-1.68.363-1.151.265-2.209.559Q363.877,565.234,362.712,565.636Z" transform="translate(47.856 47.667)" fill="#dd2b78" fill-rule="evenodd"/>
    <path id="Trazado_1646" data-name="Trazado 1646" d="M269.313,286.832l2.637,1.483v11.538a2.31,2.31,0,0,1-1.319,1.945,5.362,5.362,0,0,1-3.1.857h-.067a5.678,5.678,0,0,1-3.163-.857,2.336,2.336,0,0,1-1.254-1.912v-7.219ZM369.529,369.51a43.239,43.239,0,0,0,4.286,13.846,12.137,12.137,0,0,0,8.506,6.527,5.133,5.133,0,0,0-1.518,1.253,5.59,5.59,0,0,0-.526.593,4.1,4.1,0,0,0-.923,2.571q-1.056.33-3.43.857h-.132q-1.086.314-2.011.659-2.188-.411-4.383-.989-1.5-.364-2.967-.758a7.193,7.193,0,0,1-1.386-4.516q-.394-2.11-1.648-6.263-1.252-4.286-1.714-6.461-.156-.261-.3-.527l-.43-2.505a4.767,4.767,0,0,1,.4-1.253,4.9,4.9,0,0,1,1.518-1.78,6.453,6.453,0,0,1,1.648-.923q.659-.263,1.319-.462h.593Z" transform="translate(24.358 22.99)" fill="#96a1d2" fill-rule="evenodd"/>
    <path id="Trazado_1647" data-name="Trazado 1647" d="M388.187,366.162a16.11,16.11,0,0,1-3.825-.33,14.159,14.159,0,0,1-6.857-4.154q-2.241-2.7-4.615-5.274a18.089,18.089,0,0,1-3.692-6.857,4.457,4.457,0,0,0,.4-1.253,4.327,4.327,0,0,0-.262-3.3q-.067-2.506-.067-3.824a7.439,7.439,0,0,1,.989-3.692v.066a40.024,40.024,0,0,0,1.516,7.648q3.76,11.339,13.715,15.23a11.674,11.674,0,0,0,5.011.989A17.075,17.075,0,0,1,388.187,366.162Zm-7.648,4.549a6.378,6.378,0,0,1-5.209-1.055,23.508,23.508,0,0,1-4.022-3.758,5.507,5.507,0,0,1-1.253-4.022v-.264l.131.4a32.443,32.443,0,0,0,6.923,3.824,35.323,35.323,0,0,0,7.386,2.308h1.714A10.55,10.55,0,0,1,380.539,370.711ZM349.154,516.419l-.262.659-6.166-11.472-1.121-2.078-3.494-6.493-.427-.824-2.637-4.846q-5.671-9.093-9-14.406-.771-1.242-1.419-2.276a16.28,16.28,0,0,1-2.242-6c-.012-.071-.021-.137-.032-.2a12.439,12.439,0,0,1,0-3.428,14.787,14.787,0,0,1,.56-2.308,11.788,11.788,0,0,1,3.031-5.143,15.549,15.549,0,0,1,4.912-3.3c.287-.141.583-.273.891-.4q.961-.394,2.108-.856,3.269-1.313,8.044-3.165.981-.4,1.978-.759,1.9-.722,3.824-1.35,1.923-.657,3.857-1.22,1.99-.593,3.99-1.088a8.028,8.028,0,0,0,1.845,2.769c.245.245.51.488.793.724a18.809,18.809,0,0,0,7.449,3.232,8.9,8.9,0,0,0,1.187,1.088,8.705,8.705,0,0,0,3.891,1.681,39.432,39.432,0,0,0,6.79.857,10.185,10.185,0,0,1,.067,5.009q-2.407,8.673-10.748,11.144a24.25,24.25,0,0,1-4.416.824c-.48.042-.963.074-1.452.1q-2.356.222-4.714.4-2.025.142-4.053.229-3.088.168-6.166.232-3.645.063-7.284,0l-1.385-.067.2.067q3.891.989,5.209,2.835a40.094,40.094,0,0,1,2.9,5.009,26.589,26.589,0,0,1,1.449,4.254c.082.379.146.741.2,1.088q.526,2.11,2.174,7.121.172.467.33.923a61.683,61.683,0,0,0,2.9,6.559c.15.309.306.6.463.891q.328.621.659,1.22,1.4,2.654,2.637,4.912a16.652,16.652,0,0,0-3.3,2.242,14.4,14.4,0,0,0-3.529,3.89c-.057.087-.112.175-.165.264v.2h-.132v.593l-.131.4v.2Zm36.921,44.7-9.756,1.516.264-9.5.592-22.547q.2-5.143-2.439-13.846-1.515-5.21-1.846-6.659-1.12-3.825-1.845-6.4a38.421,38.421,0,0,1-.858-14.767,109.2,109.2,0,0,0,1.452-14.637,20.948,20.948,0,0,0,13.053-6.725,14.688,14.688,0,0,0,4.089-12q2.306-.131,4.482-.46,2.7,7.779-1.055,17.142-1.385,3.428-3.691,9.031a53.481,53.481,0,0,0-4.352,21.165q0,4.878,2.374,13.977a76.164,76.164,0,0,1,2.308,18.79q0,3.032-1.385,13.78Q386.338,557.1,386.076,561.12Z" transform="translate(43.216 39.128)" fill="#08273f" fill-rule="evenodd"/>
    <path id="Trazado_1648" data-name="Trazado 1648" d="M379.865,361.845a11.673,11.673,0,0,1-5.011-.989q-9.957-3.89-13.715-15.23a40.024,40.024,0,0,1-1.516-7.648v-.066a1.376,1.376,0,0,0,2.308,0,9.6,9.6,0,0,1,.923-1.187,1.411,1.411,0,0,1,.923-.593q1.452,2.769,5.736,5.34a38.406,38.406,0,0,1,6.527,4.483,12.473,12.473,0,0,1,4.022,6.725,16.06,16.06,0,0,1,.133,7.912Q380,361.251,379.865,361.845Zm-21.3-11.868a18.089,18.089,0,0,0,3.692,6.857q2.374,2.571,4.615,5.275a14.159,14.159,0,0,0,6.857,4.154,16.109,16.109,0,0,0,3.825.33l-1.978,1.978h-1.714a35.322,35.322,0,0,1-7.386-2.308,32.446,32.446,0,0,1-6.923-3.824l-.131-.4a.714.714,0,0,1,.131-.264,3.943,3.943,0,0,0,.659-2.242q.2-1.45-1.978-1.978l-2.308,1.451q-.131-.593-.264-1.187a6.777,6.777,0,0,1,.527-3.758,8.989,8.989,0,0,1,.858-1.516Z" transform="translate(53.845 38.698)" fill="#00467c" fill-rule="evenodd"/>
    <path id="Trazado_1649" data-name="Trazado 1649" d="M356.063,485.2a11.947,11.947,0,0,0-1.251,1.319.567.567,0,0,1-.067.262,16.905,16.905,0,0,0-1.648,2.375,7.777,7.777,0,0,1-1.515,2.24,13.01,13.01,0,0,1-3.626,2.77,20.554,20.554,0,0,1-2.573,1.121q-2.374.661-7.252,1.78a.8.8,0,0,1-.33.132q.241-.544,2.573-1.683c.152-.079.306-.156.46-.229a29.1,29.1,0,0,0,5.737-3.4q.829-.611,1.581-1.284,2.308-2.111,5.737-5.474Q355.866,483.29,356.063,485.2Zm8.571-8.769q.924,1.45-.462,3.362a16.641,16.641,0,0,1-3.361,3.132q-.7.516-1.518,1.088a3.373,3.373,0,0,0-1.385.264,3,3,0,0,1-1.054-.463l-.034-.032a1.141,1.141,0,0,1-.361-.89.881.881,0,0,1,.131-.4,16.738,16.738,0,0,1,3.562-3.262q.489-.4,1.054-.824Q363.581,476.432,364.634,476.432Z" transform="translate(48.175 83.401)" fill="#272727" fill-rule="evenodd"/>
    <path id="Trazado_1650" data-name="Trazado 1650" d="M358.49,348.362q.051.1.1.2a35.409,35.409,0,0,0-4.353-.527,8.434,8.434,0,0,0-2.439,1.385l-.593.593a5.039,5.039,0,0,0-.526.725,3.6,3.6,0,0,0-.463,1.385q-1.648-1.65-1.385-5.472a2.138,2.138,0,0,0-.923-1.516,18.043,18.043,0,0,1-2.108-1.714q-1.847-1.78-1.648-3.033a1.467,1.467,0,0,1,.264-.659q.394-.528,1.581-.33a10.23,10.23,0,0,1,2.869.989,21.258,21.258,0,0,1,1.944,1.121q1.056.593,2.573,1.648a4.131,4.131,0,0,0,.989.659,18.474,18.474,0,0,1,1.912,1.319A8.593,8.593,0,0,1,358.49,348.362Zm-63.459,3.494q-.728-1.648-1.385-3.56a.741.741,0,0,0,.066-.33q.409.241.758.461a9.017,9.017,0,0,0,2.209,1.055q.526,0,.526-.4,0-.33-3.229-3.824c-.024-.024-.045-.046-.067-.066q-1.06-1.121-1.911-1.912l-.133-.132q-.328-.791,1.055-2.176a.957.957,0,0,1,.264.132q.9.471,4.485,2.967a1.56,1.56,0,0,1,.131.1,57.249,57.249,0,0,0,5.538,3.4q1.064.336,1.188-.033a.685.685,0,0,0,0-.165,8.063,8.063,0,0,0-.33-1.714c-.065-.21-.131-.429-.2-.659a2.273,2.273,0,0,1-.165-1.286.408.408,0,0,1,.495-.231,7.79,7.79,0,0,1,4.615,3.231,4.067,4.067,0,0,1,.725,1.187,4.584,4.584,0,0,0-2.9.923q-.58.405-1.78,1.385c-.1.08-.212.169-.33.264a6.208,6.208,0,0,1-2.768,1.516,12.427,12.427,0,0,1-2.7.1q-1.6-.063-4.121-.231Zm76.215,13.516v-.593a47.734,47.734,0,0,1,0-6.132,11.684,11.684,0,0,1,1.584-5.868q1.515-2.374,2.438-3.956a2.785,2.785,0,0,0,1.847,2.571.266.266,0,0,0,.264.132,8.989,8.989,0,0,0-.858,1.516,6.777,6.777,0,0,0-.527,3.758q.133.593.264,1.187l2.308-1.451q2.178.528,1.978,1.978a3.943,3.943,0,0,1-.659,2.242q-.263,0-.593.527-.263.4-1.581.462a9.634,9.634,0,0,0-1.188.165,2.71,2.71,0,0,0-.857.3,11.48,11.48,0,0,0-1.055,1.055A30.607,30.607,0,0,1,371.246,365.372Z" transform="translate(33.519 39.72)" fill="#f39571" fill-rule="evenodd"/>
    <path id="Trazado_1651" data-name="Trazado 1651" d="M304.709,345.548l-.131-.824,29.767-5.143-.462-5.274,4.088-.725,5.8,33.493-6.923,1.22-1.648-19.68-23.9,4.154a1.783,1.783,0,0,1-.033-.33,6.332,6.332,0,0,0-.725-2.7,4.066,4.066,0,0,0-.725-1.187,7.79,7.79,0,0,0-4.615-3.231A.408.408,0,0,0,304.709,345.548Zm43.745,48,2.012,11.373.46,5.143-10.219,1.78-1.813-20.7-25.349,4.417-1.549-8.9,17.767-3.1A174.689,174.689,0,0,0,348.454,393.546ZM305.4,349.372l-.33-1.879a8.063,8.063,0,0,1,.33,1.714A.688.688,0,0,1,305.4,349.372Zm35.239,258.186-17.571,3.066,1.518,17.438-10.155,1.715L289.05,341.922l4.681-.857.33,1.879a.957.957,0,0,0-.264-.132q-1.383,1.385-1.055,2.176l.133.132q.461.791.79,1.385a4.4,4.4,0,0,1,.595,1.385,1.854,1.854,0,0,1,.33,1.912.741.741,0,0,1-.066.33q.659,1.911,1.385,3.56a1.509,1.509,0,0,1,.065.2l8.7,49.152,2.441,27.988,2.406-.4,1.549,8.835-3.1.526,2.9,33.56,6-1.022,1.551,8.833-6.758,1.154,2.967,33.692,9.626-1.648,1.582,8.967-10.353,1.78,2.9,33.625,13.286-2.308,1.548,8.9-13.976,2.44,2.9,33.558,16.911-2.933Zm16.219-13.351,10.12-1.78,2.472,28.087-10.219,1.714-1.615-17.6-6.889,1.185-1.582-9,7.811-1.352Zm-15.2-39.329,11.4-2.01-.165-2.011,10.254-1.813,3,34.086L356,584.944,353.928,561.9l-10.714,1.878Zm10.45-13.186-.1-1.154a1.334,1.334,0,0,0,.4.463,1.389,1.389,0,0,0-.1.659Zm-17.867-28.877,15.13-2.606-.229-2.637,4.152-.724,6.166,11.472.262-.659q-.065.4-.132.857v.262a10.454,10.454,0,0,0-.264,1.847v1.055a1.854,1.854,0,0,0-.131.791,52.55,52.55,0,0,1-.2,5.275.377.377,0,0,1-.131.262,2.431,2.431,0,0,0-.066.595,22.581,22.581,0,0,0-1.518,3.56,2.034,2.034,0,0,1-.264.659,7.081,7.081,0,0,1-1.779,1.978.448.448,0,0,1-.4.2,7.437,7.437,0,0,0-2.7,2.637,3.389,3.389,0,0,0-.33.659l-1.648-18.988-14.34,2.472Zm14.01-15.362.427.824-.361.065ZM336.621,478.2l-8.241,1.418-1.549-8.835,6.1-1.055c.011.061.02.127.032.2a16.281,16.281,0,0,0,2.242,6Q335.849,476.96,336.621,478.2Zm7.812-23.9-1.779-20.373-21.627,3.791-1.548-8.835,22.382-3.857-.361-4.088,10.219-1.813,2.735,31.25q-1,.366-1.978.759Q347.7,452.989,344.432,454.3ZM356.7,475.96l.034.495a6.318,6.318,0,0,0-.89-.529Z" transform="translate(32.642 37.885)" fill-rule="evenodd" fill="url(#linear-gradient)"/>
    <path id="Trazado_1652" data-name="Trazado 1652" d="M359.97,372.743q-.223-4.573-1.088-5.34a16.191,16.191,0,0,0,3.89-4.582c.111-.181.222-.367.33-.56h.462A2.686,2.686,0,0,0,366,361.007v.264a5.507,5.507,0,0,0,1.253,4.022,23.506,23.506,0,0,0,4.022,3.758,6.378,6.378,0,0,0,5.209,1.055.687.687,0,0,1-.067.1q-.591.136-1.251.231-1.385.263-2.77.4a44.284,44.284,0,0,1-5.735.593,26.331,26.331,0,0,0-5.737.923A5.437,5.437,0,0,0,359.97,372.743Zm-24.855-32.372-.165-.989a29.24,29.24,0,0,1,2.9,1.45q.859.528,2.7,1.516A10.129,10.129,0,0,1,342.73,344a5.872,5.872,0,0,1,1.122,1.451,25.679,25.679,0,0,1,1.319,3.033h-.165l-.264-.132a8.592,8.592,0,0,0-2.209-3.231,18.474,18.474,0,0,0-1.912-1.319,4.131,4.131,0,0,1-.989-.659q-1.517-1.056-2.573-1.648A21.258,21.258,0,0,0,335.116,340.371Z" transform="translate(47.267 39.733)" fill="#da6c4b" fill-rule="evenodd"/>
    <path id="Trazado_1653" data-name="Trazado 1653" d="M349.687,383.816q-3.01-1.072-5.934-2.308l3.461-.593-1.185-6.857-2.177.33-5.8-33.493-4.088.725-30.2,5.34v-.066l-.4-2.176,36.592-6.4v-.066L338.71,331.5v-.033l-2.174.462v-.1l-.133.033-1.055-6.066-2.637-15.164,4.22.725,2.672,15.2,2.273,12.955.034.132,1.416,8.077.857,4.945.2,1.088.495,2.9.165.857.494,2.8.89,4.978ZM331.755,563.939l-5.835-33.1-1.582-8.967-5.835-33.2-1.551-8.833-5.8-33.064-1.549-8.835-4.847-27.592-8.7-49.152a15.485,15.485,0,0,0,1.584,2.9c0,.088.021.132.065.132a8.8,8.8,0,0,0,3.527,3.2l4.879,27.592,1.549,8.9,5.868,33.327,1.549,8.836,5.835,33.064,1.551,8.835,5.835,33.2,1.582,8.967,5.835,33.1,1.548,8.9,5.835,33.063,1.582,8.968,3.264,18.461,1.452,8.208,2.834,16.219.923,5.174v.33l-4.152-.79-.694-4.022-2.867-16.219-1.452-8.208-3.264-18.461-1.582-8.967L333.3,572.84ZM290.02,326.917l-1.185-6.791-.034-.264v-.033l4.221.824.032.2.957,5.373,3.691,21.1.066.33.989,5.67a1.555,1.555,0,0,0-.131-.1q-3.584-2.5-4.485-2.967l-.33-1.879-.066-.363ZM324.3,387.178l-13.021,2.308-.33-2.176,10.978-1.945Q323.131,386.308,324.3,387.178Zm17.275,41.075-22.715,4.022-.46-2.176,36.129-6.461-1.154-6.692-1.945.363-.889-5.077-2.012-11.373q1.614.718,3.231,1.418.4.2.725.33c.178.07.355.136.529.2l9.2,52.316q-1.933.562-3.857,1.22l-5.339-30.132-1.22.232ZM349,602.9l-.463-2.108,36.262-6.4-1.088-6.461q.855-.133,1.813-.264l6.132,34.713,1.913,10.813,2.834,16.054.659,3.824v.2l-4.152-.725-.463-2.6L390.6,639.5l-34.154,6.067-.4-2.176,36.132-6.4-1.122-6.857-2.044.33-1.582-8.8L383.017,596.9l-5.54.989L367.06,599.74l-10.12,1.78Zm3.988-44.733-11.57,2.077-.33-2.177,36.262-6.394-1.319-6.923-2.111.4-1.35-7.682a5.1,5.1,0,0,1,.955-.361,3.374,3.374,0,0,1,1.385-.264q.815-.572,1.518-1.088l1.054,6.066,6.2,35.306c-.111.165-.22.318-.33.461q-.463.328-2.177,1.911-.526.437-.989.824l-2.7-15.329-1.912-10.811-12.328,2.176Zm-.725-46.087,1.121,2.078-4.152.724-15.329,2.7-.4-2.176Zm-19.251-38.47-6.692,1.187-.4-2.176,7.648-1.319A14.789,14.789,0,0,0,333.008,473.614Zm34.151,9.692,6.857,38.932c-.092-.1-.191-.2-.3-.3a38.542,38.542,0,0,1-3.825-3.956l1.254-1.978a69.366,69.366,0,0,1-4.022-6.561l2.438-.427-1.253-6.923-1.845.4-3.4-19.12q1.756-.024,3.526-.066C366.793,483.3,366.979,483.3,367.159,483.306Z" transform="translate(32.562 30.573)" fill="#994e33" fill-rule="evenodd"/>
    <path id="Trazado_1654" data-name="Trazado 1654" d="M378.847,348l-1.515,2.571a.266.266,0,0,1-.264-.132,2.784,2.784,0,0,1-1.847-2.571,16.434,16.434,0,0,1,1.253-1.912,13.625,13.625,0,0,1,2.507-2.505,4.327,4.327,0,0,1,.262,3.3A4.457,4.457,0,0,1,378.847,348Zm-68.765,4.417a6.743,6.743,0,0,0-4.22,1.879,8.124,8.124,0,0,0-1.385,1.747,3.015,3.015,0,0,0-.463.923,3.275,3.275,0,0,1-.33,1.121,1.228,1.228,0,0,1-.79,0,8.526,8.526,0,0,1-2.672-.758,8.805,8.805,0,0,1-3.527-3.2c-.044,0-.065-.044-.065-.132a15.482,15.482,0,0,1-1.584-2.9,1.518,1.518,0,0,0-.065-.2h.032q2.518.168,4.121.231a12.43,12.43,0,0,0,2.7-.1,6.208,6.208,0,0,0,2.768-1.516c.117-.095.227-.183.33-.264q1.2-.979,1.78-1.385a4.584,4.584,0,0,1,2.9-.923,6.332,6.332,0,0,1,.725,2.7,1.781,1.781,0,0,0,.033.33.239.239,0,0,1,.034.066v.4l-.067.132a1.57,1.57,0,0,1,0,.659A10.377,10.377,0,0,1,310.082,352.419Zm-16.417-5.406a1.854,1.854,0,0,0-.33-1.912,4.4,4.4,0,0,0-.595-1.385q-.33-.593-.79-1.385.849.791,1.911,1.912c.022.02.044.042.067.066q3.23,3.493,3.229,3.824,0,.4-.526.4a9.018,9.018,0,0,1-2.209-1.055Q294.075,347.255,293.665,347.013Zm86.04,13.054a2.686,2.686,0,0,1-2.441,1.253H376.8c-.108.194-.219.38-.33.56a16.19,16.19,0,0,1-3.89,4.582.189.189,0,0,1-.13-.066h-.066a2.409,2.409,0,0,1-1.188-1.978,30.609,30.609,0,0,0,3.363-2.11,11.485,11.485,0,0,1,1.055-1.055,2.711,2.711,0,0,1,.857-.3,9.641,9.641,0,0,1,1.188-.165q1.317-.067,1.581-.462.33-.528.593-.527A.714.714,0,0,0,379.705,360.068Z" transform="translate(33.566 40.673)" fill="#ea845c" fill-rule="evenodd"/>
    <path id="Trazado_1655" data-name="Trazado 1655" d="M354.387,375.24q1.468.4,2.967.758,2.2.578,4.383.989,1.531.309,3.066.527,3.43.726,4.615,2.769a4.964,4.964,0,0,1,.33,4.22,2.681,2.681,0,0,1-.066.462,83.317,83.317,0,0,1-14.306-1.516q-.756-.156-1.518-.33-1.252-.277-2.505-.593-1.994-.493-3.956-1.088-2.209-.665-4.383-1.451a78.9,78.9,0,0,1-8.9-3.923q-1.776-.914-3.5-1.912-1.428-.85-2.835-1.747a83.688,83.688,0,0,1-7.844-5.7c-.28-.215-.554-.434-.824-.659q-4.88-4.088-9.89-8.307-.265-.2-.727-.527a7.024,7.024,0,0,0-4.286,2.67,9.176,9.176,0,0,0-.791,1.286,6.709,6.709,0,0,1-2.571-4.22,3.276,3.276,0,0,0,.33-1.121,3.017,3.017,0,0,1,.463-.923,8.121,8.121,0,0,1,1.385-1.747,6.743,6.743,0,0,1,4.22-1.879,6.257,6.257,0,0,1,2.7.066q.989.924,2.108,1.846a111.112,111.112,0,0,0,17.176,11.868,106.91,106.91,0,0,0,10.68,5.209q2.923,1.236,5.934,2.308,3.212,1.149,6.527,2.11Q353.37,374.966,354.387,375.24Zm15.889-4.187a5.5,5.5,0,0,1,.559-.4,5.438,5.438,0,0,1,.956-.4,26.329,26.329,0,0,1,5.737-.923,44.288,44.288,0,0,0,5.735-.593q1.385-.132,2.77-.4.661-.095,1.251-.231a12.689,12.689,0,0,0,1.253-.3,6.759,6.759,0,0,1,.529,2.308,8.253,8.253,0,0,1-1.518,1.516,7.833,7.833,0,0,1-2.242.89,15.5,15.5,0,0,1-3.559.363,44.816,44.816,0,0,0-10.813,1.385q-.607.148-1.188.33-1.317.461-2.438.857a4.1,4.1,0,0,1,.923-2.571,5.59,5.59,0,0,1,.526-.593A5.133,5.133,0,0,1,370.277,371.053ZM349.639,358c-.095-.129-.183-.262-.264-.4a9.555,9.555,0,0,1-1.121-2.967q-.263-1.054-.79-2.967c-.045-.22-.09-.44-.133-.659a1.9,1.9,0,0,1,0-.989,3.6,3.6,0,0,1,.463-1.385,5.036,5.036,0,0,1,.526-.725l.593-.593a8.434,8.434,0,0,1,2.439-1.385,35.4,35.4,0,0,1,4.353.527q-.047-.1-.1-.2l.264.132c.16.082.324.17.495.264l1.119,4.022-3.1-.132h-.593q-.661.2-1.319.461a6.452,6.452,0,0,0-1.648.923,4.9,4.9,0,0,0-1.518,1.78,4.766,4.766,0,0,0-.4,1.253l.43,2.505Q349.482,357.738,349.639,358Z" transform="translate(36.402 41.819)" fill="#fff" fill-rule="evenodd"/>
    <path id="Trazado_1656" data-name="Trazado 1656" d="M384.4,532.593l-1.451.2-.527.132q.265-4.023,1.386-12.131,1.383-10.748,1.385-13.779a76.165,76.165,0,0,0-2.308-18.79q-2.376-9.1-2.374-13.977a53.481,53.481,0,0,1,4.351-21.165q2.306-5.6,3.691-9.031,3.76-9.363,1.055-17.142.989-.133,1.912-.33a1.057,1.057,0,0,0,.659-.2,12.219,12.219,0,0,1,1.714-.394q1.517,2.5,1.188,7.976a18.984,18.984,0,0,1-2.967,9.429q-2.506,4.021-4.022,14.306a104.391,104.391,0,0,1-2.967,14.7,16.179,16.179,0,0,0-.727,7.846,46.887,46.887,0,0,0,1.978,7.648,76.025,76.025,0,0,1,2.441,7.648,25.074,25.074,0,0,1,.593,7.647,35.012,35.012,0,0,1-.463,3.626q-.131.661-.856,7.912-.858,7.188-1.716,17.6ZM349.92,466.134a41.05,41.05,0,0,0,2.9,6.559,69.364,69.364,0,0,0,4.022,6.561l-2.441.4c-.526.22-1.055.46-1.581.725q-1.238-2.259-2.637-4.912-.332-.6-.659-1.22c-.157-.287-.313-.583-.463-.891a61.683,61.683,0,0,1-2.9-6.559q-.158-.457-.33-.923-1.648-5.012-2.174-7.121c-.053-.347-.117-.709-.2-1.088a26.594,26.594,0,0,0-1.449-4.254,40.1,40.1,0,0,0-2.9-5.009q-1.319-1.847-5.209-2.835l-.2-.067,1.385.067q3.637.063,7.284,0,3.082-.063,6.166-.232,2.025-.089,4.053-.229,2.358-.174,4.714-.4c.489-.025.972-.057,1.452-.1a24.25,24.25,0,0,0,4.416-.824q8.341-2.47,10.748-11.144a10.185,10.185,0,0,0-.067-5.009h2.308q4.551,0,8.968-.265a14.688,14.688,0,0,1-4.089,12,20.948,20.948,0,0,1-13.053,6.725q-2.178.131-4.485.394h-.33q-2.023,0-4.086,0-3.068.026-6.232.067c-.181,0-.367,0-.56,0q-1.768.043-3.526.066-3.153,0-6.3-.1l-.856-.034a6.321,6.321,0,0,1,.89.529,9.07,9.07,0,0,1,2.6,3.033,18.487,18.487,0,0,1,1.912,5.339q.593,2.771,2.439,9.3Q349.657,465.4,349.92,466.134Z" transform="translate(46.869 67.326)" fill="#005897" fill-rule="evenodd"/>
    <path id="Trazado_1657" data-name="Trazado 1657" d="M387.061,426.508a12.21,12.21,0,0,0-1.714.394,1.057,1.057,0,0,1-.659.2q-.922.2-1.912.33-2.174.33-4.482.46-4.419.265-8.968.265h-2.308a39.435,39.435,0,0,1-6.79-.857,8.706,8.706,0,0,1-3.891-1.681,8.908,8.908,0,0,1-1.187-1.088c.388.095.783.182,1.187.264a55.474,55.474,0,0,0,6.792.989q2.306.2,4.746.264,4.549.2,10.022-.066a39.966,39.966,0,0,0,4.353-.4q1.185-.2,2.174-.46a18.7,18.7,0,0,0,2.374-.593c.177-.088.307-.154.4-.2Z" transform="translate(53.703 66.8)" fill="#111c35" fill-rule="evenodd"/>
    <path id="Trazado_1658" data-name="Trazado 1658" d="M362.74,535.938q-.631-.483-.3-1.681,1.122-.34,3.363-.824.787-.174,1.714-.363a1.035,1.035,0,0,0,.4-.132q.944-.2,1.779-.4,2.2-.492,3.626-.923.851-.136,2.374-.43,1.454-.275,3.5-.691,1.58-.33,2.967-.593c.307-.044.593-.088.856-.132q1.122-.2,2.176-.33a3.45,3.45,0,0,1,.725,1.911q.2,1.717-.659,1.781a82.345,82.345,0,0,1-8.967,1.385c-.17.022-.344.045-.527.066q-3.169.33-5.6.659-.957.131-1.813.264-1.274.2-2.275.4-2.108.263-2.7.264A1.784,1.784,0,0,1,362.74,535.938Zm.494-60.756a4.166,4.166,0,0,1,1.648,1.648q-1.054,0-3.428,1.978-.566.425-1.054.824a16.737,16.737,0,0,0-3.562,3.262.881.881,0,0,0-.131.4,1.141,1.141,0,0,0,.361.89l.034.032a3.005,3.005,0,0,0,1.054.463,5.1,5.1,0,0,0-.955.361,5.42,5.42,0,0,0-.891.562q-.2-1.913-2.174-.067-3.43,3.365-5.737,5.474-.752.672-1.581,1.284a29.1,29.1,0,0,1-5.737,3.4c-.154.074-.309.15-.46.229q-2.33,1.139-2.573,1.683c-.264.087-.55-.044-.857-.4a1.486,1.486,0,0,1-.165-.659,1.389,1.389,0,0,1,.1-.659,4.8,4.8,0,0,1,.593-.2h.066c.177-.088.352-.175.529-.265l4.482-2.57q.924-.791,1.846-1.648,1.019-.987,1.913-1.846,2.888-2.793,4.549-4.351.623-.562,5.275-4.78.255-.247.526-.495a29.23,29.23,0,0,1,3.066-2.571,18.62,18.62,0,0,1,2.342-1.518,1.416,1.416,0,0,1,.46-.262Z" transform="translate(47.926 83.002)" fill="#050607" fill-rule="evenodd"/>
    <g id="Grupo_10029" data-name="Grupo 10029" transform="translate(227.158 214.678)">
      <path id="Trazado_1659" data-name="Trazado 1659" d="M243.737,331.841a6.21,6.21,0,0,1,.33-1.978q0-.265,10.879-36.2l-28.35-16.549a5.906,5.906,0,0,1-2.045-2.308v-.264a6.255,6.255,0,0,1,0-4.549,8.087,8.087,0,0,1,2.045-3.363c0-.175.109-.286.33-.33a6.519,6.519,0,0,1,3.493-2.176l34.549-6.066,9.758-32.306q.856-2.439,1.383-4.022a26.56,26.56,0,0,1,1.584-3.494,5.353,5.353,0,0,1,1.054-1.319,4.118,4.118,0,0,1,1.978-.923,7.879,7.879,0,0,1,2.439-.132q.4.065.791.132a5.7,5.7,0,0,1,3.43,2.11,7.8,7.8,0,0,1,.856,1.714q1.189,2.9,2.176,5.934l7.847,23.34,1.054,2.967,33.954-6.329a3.5,3.5,0,0,1,1.188-.033l.131.033h.4a6.193,6.193,0,0,1,4.485,3.692,7.038,7.038,0,0,1,.2,2.769,15.612,15.612,0,0,1-.2,1.714,10.462,10.462,0,0,1-2.374,3.428l-27.824,26.768,11.274,31.647a5.777,5.777,0,0,1,.133,4.351,11.258,11.258,0,0,1-2.507,3.626,7.671,7.671,0,0,1-3.163,2.176,6.592,6.592,0,0,1-2.441.066q-1.054-.2-1.185-.2l-29.209-16.417-2.308,2.176-6.328,5.9L254.088,335.6a8.183,8.183,0,0,1-3.825,1.846,6.177,6.177,0,0,1-2.24-.2h-.2a3.868,3.868,0,0,1-1.386-.593,4.849,4.849,0,0,1-1.516-1.516c-.132-.177-.264-.351-.394-.527a2.779,2.779,0,0,1-.462-1.121A7.733,7.733,0,0,1,243.737,331.841Z" transform="translate(-215.204 -214.313)" fill="#ffd142" fill-rule="evenodd"/>
      <path id="Trazado_1660" data-name="Trazado 1660" d="M232.247,302.607l8.9,1.582a7.734,7.734,0,0,0,.33,1.648,2.78,2.78,0,0,0,.462,1.121c.131.177.262.351.394.527A4.849,4.849,0,0,0,243.85,309a3.867,3.867,0,0,0,1.386.593l-8.9-1.582a3.39,3.39,0,0,1-1.386-.527,4.878,4.878,0,0,1-1.516-1.516,3.8,3.8,0,0,1-.856-1.648A6.923,6.923,0,0,1,232.247,302.607Z" transform="translate(-212.615 -186.662)" fill="#f4852e" fill-rule="evenodd"/>
      <path id="Trazado_1661" data-name="Trazado 1661" d="M257.008,279.859l-8.9-1.451-28.286-16.615a6.4,6.4,0,0,1-2.11-2.308v-.264l-.066-.066,8.967,1.582V261a5.907,5.907,0,0,0,2.045,2.308Z" transform="translate(-217.267 -200.506)" fill="#f4852e" fill-rule="evenodd"/>
      <path id="Trazado_1662" data-name="Trazado 1662" d="M257.248,258.428l-8.9-1.582,9.822-32.24q.791-2.374,1.319-4.022a33.036,33.036,0,0,1,1.584-3.494,4.083,4.083,0,0,1,3.031-2.176,6.91,6.91,0,0,1,2.439-.2l.527.132h.132l8.241,1.385a7.879,7.879,0,0,0-2.439.132,4.118,4.118,0,0,0-1.978.923,5.353,5.353,0,0,0-1.054,1.319,26.56,26.56,0,0,0-1.584,3.494q-.526,1.582-1.383,4.022Z" transform="translate(-207.485 -214.678)" fill="#f4852e" fill-rule="evenodd"/>
      <path id="Trazado_1663" data-name="Trazado 1663" d="M268.968,290.383l-2.572-1.451,2.308-2.176,29.208,16.416-8.571-1.45-.264-.066h-.066Z" transform="translate(-201.734 -191.712)" fill="#f4852e" fill-rule="evenodd"/>
      <path id="Trazado_1664" data-name="Trazado 1664" d="M252.356,275.207q-10.879,35.933-10.879,36.2a6.21,6.21,0,0,0-.33,1.978l-8.9-1.582a6.451,6.451,0,0,1,.33-1.912q0-.263,10.879-36.13Z" transform="translate(-212.615 -195.854)" fill="#feab45" fill-rule="evenodd"/>
      <path id="Trazado_1665" data-name="Trazado 1665" d="M226.7,264.722l-8.967-1.582a6.32,6.32,0,0,1,.066-4.483,7.813,7.813,0,0,1,2.11-3.362.311.311,0,0,1,.265-.33,6.829,6.829,0,0,1,3.559-2.176l34.483-6.066v-.066l8.9,1.582-34.549,6.066a6.519,6.519,0,0,0-3.493,2.176c-.22.044-.33.154-.33.33a8.087,8.087,0,0,0-2.045,3.363A6.255,6.255,0,0,0,226.7,264.722Z" transform="translate(-217.359 -204.489)" fill="#feab45" fill-rule="evenodd"/>
      <path id="Trazado_1666" data-name="Trazado 1666" d="M316.543,238.856a3.5,3.5,0,0,0-1.188.033L281.4,245.219l-1.054-2.967,26.107-4.879a5.567,5.567,0,0,1,1.714,0Z" transform="translate(-197.289 -207.468)" fill="#feab45" fill-rule="evenodd"/>
    </g>
  </g>
</svg>
