<svg xmlns="http://www.w3.org/2000/svg" width="340.198" height="426.764" viewBox="0 0 340.198 426.764">
  <g id="Grupo_10034" data-name="Grupo 10034" transform="translate(-566.403 -781.942)">
    <path id="Trazado_1730" data-name="Trazado 1730" d="M906.6,1017.619l-170.1,29.416-170.1-29.416,37.174-6.438v6.523l133.01,23.447v-.085l132.84-23.447v-6.395Z" transform="translate(0 161.672)" fill-rule="evenodd" opacity="0.1"/>
    <path id="Trazado_1731" data-name="Trazado 1731" d="M853.583,1007.061l-132.37,23.362v.085h-.085l-104.192-18.375h-.127l-28.606-5.072,22.04-3.88,110.97,19.569,110.628-19.526Z" transform="translate(15.374 156.029)" fill="#0d8e90" fill-rule="evenodd"/>
    <path id="Trazado_1732" data-name="Trazado 1732" d="M721.212,1045.188,588.2,1021.741v-16.285l28.606,5.072h.127L721.127,1028.9h.085v16.285Z" transform="translate(15.374 157.634)" fill="#1fbcbf" fill-rule="evenodd"/>
    <path id="Trazado_1733" data-name="Trazado 1733" d="M666.2,1014.8,798.786,991.4l.256-.042v16.285l-22.212,3.922L666.2,1031.089Z" transform="translate(70.384 147.69)" fill="#ff65a7" fill-rule="evenodd"/>
    <path id="Trazado_1734" data-name="Trazado 1734" d="M721.178,1008.319l-58.192-10.274-.684-.128-74.051-13.045,106.068-18.63a27.968,27.968,0,0,0,.256,4.817q.169.767,1.023,5.627v.085a108.1,108.1,0,0,0-11,1.79q-12.789,2.814-12.789,6.821T684.6,992.2q12.79,2.814,30.867,2.814,18.161,0,30.949-2.814,12.7-2.814,12.706-6.821t-12.706-6.821q-4.671-1.028-10.059-1.663-1.389-.609-1.792-.81a81.111,81.111,0,0,1-1.618-11c-.043-.529-.087-1.038-.128-1.535l120.816,21.316-132.37,23.362v.085Z" transform="translate(15.409 128.084)" fill="#ffdb59" fill-rule="evenodd"/>
    <path id="Trazado_1735" data-name="Trazado 1735" d="M680.279,890.269c-.275,0-.558.014-.853.042-.2.007-.394.019-.6.043q-12.278.683-19.7-3.922,2.133-2.645,3.327-4.007a6.834,6.834,0,0,0,1.535-4.775q.424-8.61-5.714-21.742-3.323-6.822-4.858-10.4a.756.756,0,0,1-.044-.128,50.281,50.281,0,0,0,1.323-7.46l.6-3.922a70.343,70.343,0,0,0,.769-14.324q-.044-3.187-.085-6.395a8.544,8.544,0,0,1,1.194-.171l.512.426q4.857,2.982,13.983,2.814,1.021,0,2.558-.085h5.2a26.932,26.932,0,0,1,6.906.853,13.994,13.994,0,0,1,3.24.6,14.684,14.684,0,0,0-3.24,2.728q-5.714,6.31-5.713,19.61,0,4.262,2.643,14.495,2.642,10.147,2.643,15.944a58.437,58.437,0,0,1-2.048,14.495q-.6,2.642-1.279,5.031h-.254Q681.215,890.182,680.279,890.269Z" transform="translate(61.339 21.979)" fill="#ffdb59" fill-rule="evenodd"/>
    <path id="Trazado_1736" data-name="Trazado 1736" d="M662.37,963.256a11.917,11.917,0,0,0-.938,4.434,20.154,20.154,0,0,1-2.005-3.922Z" transform="translate(65.606 127.873)" fill="#ffdb59" fill-rule="evenodd"/>
    <path id="Trazado_1737" data-name="Trazado 1737" d="M662.92,971.129h-1.192a4.323,4.323,0,0,0,.639-1.023A7.081,7.081,0,0,1,662.92,971.129Z" transform="translate(67.229 132.704)" fill="#ffdb59" fill-rule="evenodd"/>
    <path id="Trazado_1738" data-name="Trazado 1738" d="M666.078,971.137a10.093,10.093,0,0,1,.723-.981c.15.3.307.64.471,1.023Q666.686,971.164,666.078,971.137Z" transform="translate(70.296 132.739)" fill="#ffdb59" fill-rule="evenodd"/>
    <path id="Trazado_1739" data-name="Trazado 1739" d="M588.2,992.342V976.056l74.05,13.046.768.128L721.212,999.5v16.286L616.041,997.245Z" transform="translate(15.374 136.9)" fill="#fd9c3c" fill-rule="evenodd"/>
    <path id="Trazado_1740" data-name="Trazado 1740" d="M672.591,883.078a58.437,58.437,0,0,0,2.048-14.495q0-5.8-2.643-15.944-2.642-10.232-2.643-14.495,0-13.3,5.713-19.61a14.684,14.684,0,0,1,3.24-2.728q.6.256,1.107.426l.385.256c-.094.022-.191.049-.3.085q-1.959,1.622-3.579,7.5-.514,1.791-.938,4.093-.427,7.674,1.874,12.022,2.22,2.9,4.435,1.62a13.086,13.086,0,0,0,3.238-3.5.248.248,0,0,1,.085-.171q.427-.512.853-1.023c.314-.312.626-.626.94-.938l.085-.085a45.747,45.747,0,0,1,6.777-5.713q7.316,12.633-.98,17.394-3.921,3.412-4.348,4.6-.338.939-1.705,6.992a47.032,47.032,0,0,0-1.107,13.216,26.925,26.925,0,0,0,4.689,13.471,113.953,113.953,0,0,0-11.683,1.194,2.517,2.517,0,0,1-.6.085,1.354,1.354,0,0,0-.426.085,1.571,1.571,0,0,0-.512.085l-4.435.512H672a2.843,2.843,0,0,0-.684.085Q672,885.72,672.591,883.078Z" transform="translate(72.606 23.883)" fill="#fd9c3c" fill-rule="evenodd"/>
    <path id="Trazado_1741" data-name="Trazado 1741" d="M663.088,973.008q2.046.087,1.959,1.364a10.288,10.288,0,0,1,.426,3.666q.427,2.3,2.3,1.791a23.423,23.423,0,0,0-.085-3.325,31.191,31.191,0,0,1-.256-3.24,23.7,23.7,0,0,1,4.432.085q2.816.169,3.5-.512a7.5,7.5,0,0,0,3.624-2.132h1.192a25.064,25.064,0,0,1,1.407,7.674q.514,5.8,2.3,7.588a18.9,18.9,0,0,0,.6-3.837q0-2.814.084-4.178a16.135,16.135,0,0,1,1.835-7.2q.609.028,1.194.043.673,1.647,1.492,4.348a24.557,24.557,0,0,0,1.874,5.286,35.892,35.892,0,0,0,8.526,2.9,13.613,13.613,0,0,0,8.784-1.279q4.433-4.093.169-7.077a20.8,20.8,0,0,0-4.263-2.132q-1.422-.591-2.386-.98,5.39.634,10.059,1.663,12.7,2.814,12.706,6.821t-12.706,6.821q-12.789,2.814-30.949,2.814-18.077,0-30.867-2.814t-12.789-6.821q0-4.008,12.789-6.821a108.1,108.1,0,0,1,11-1.79Q661.027,972.924,663.088,973.008Z" transform="translate(49.967 133.127)" fill="#fd9c3c" fill-rule="evenodd"/>
    <path id="Trazado_1742" data-name="Trazado 1742" d="M799.042,1005.406v16.285L666.2,1045.138v-16.285l132.37-23.362Z" transform="translate(70.384 157.599)" fill="#4eeef1" fill-rule="evenodd"/>
    <path id="Trazado_1743" data-name="Trazado 1743" d="M666.252,999.453l132.37-23.362.47-.085v16.285l-28.35,4.989-104.49,18.458V999.453Z" transform="translate(70.419 136.864)" fill="#ffbd59" fill-rule="evenodd"/>
    <path id="Trazado_1744" data-name="Trazado 1744" d="M662.337,983.706l.684.128-.769-.128Zm58.79,36.493L588.2,996.751l27.838-4.9,105.172,18.545V994.108h.083v16.2l104.491-18.459,28.009,4.945-132.583,23.4Z" transform="translate(15.375 142.295)" fill="#cb2069" fill-rule="evenodd"/>
    <path id="Trazado_1745" data-name="Trazado 1745" d="M588.2,1007.641V991.356L721.127,1014.8h.085v16.285l-110.97-19.569Z" transform="translate(15.374 147.69)" fill="#ed428b" fill-rule="evenodd"/>
    <path id="Trazado_1746" data-name="Trazado 1746" d="M647.2,849.732q2.473-8.357,6.652-21.316c.2.261.37.489.51.682q.867,6.3,1.2,12.7l.043.554a71.843,71.843,0,0,1-3.965,15.39,109.98,109.98,0,0,0-4.348,14.239h-.172a13.3,13.3,0,0,1-6.309.171Q643.534,861.924,647.2,849.732Zm45.957-32.741a5.846,5.846,0,0,1,2.73,1.961l4.988,4.476q15.383-5.169,21.7-7.631a182.825,182.825,0,0,0,22.085-9.976q3.494-1.194,6.309,2.729c.283.453.568.911.853,1.364q-1.878.852-4.094,1.961-6.819,3.5-14.578,8.1-1.026.6-13.558,7.247-5.975,3.047-10.018,4.647a20.735,20.735,0,0,1-6.691,1.833q-2.645,0-6.821-2.387,1.619-5.883,3.579-7.5c.109-.036.206-.063.3-.085l-.385-.256q-.512-.171-1.107-.426a13.994,13.994,0,0,0-3.24-.6,26.932,26.932,0,0,0-6.906-.853h-5.2q-1.537.085-2.558.085-9.124.169-13.983-2.814a20.508,20.508,0,0,0,1.79-1.876q.512-.6,1.535-2.046,1.962-2.3,4.176-1.705a50.28,50.28,0,0,0,7.931,1.449q4.087.576,6.309.938c.713.135,1.281.247,1.705.341A18.654,18.654,0,0,1,693.153,816.991Z" transform="translate(52.47 16.644)" fill="#e8effd" fill-rule="evenodd"/>
    <path id="Trazado_1747" data-name="Trazado 1747" d="M651.465,825.755c.077.513.147,1.025.213,1.535-.14-.193-.309-.421-.51-.682Q651.309,826.183,651.465,825.755Zm85.648-4.348a.353.353,0,0,1-.256.085,1.031,1.031,0,0,1-.258.171c-.056.058-.112.114-.169.171q-2.645,1.535-6.565,3.581-2.474,1.279-5.372,2.814-2.729,1.363-6.054,2.9a73.559,73.559,0,0,0-7.718,4.689,45.747,45.747,0,0,0-6.777,5.713l-.085.085c-.314.312-.626.626-.94.938q-.425.511-.853,1.023a.248.248,0,0,0-.085.171,13.086,13.086,0,0,1-3.238,3.5q-2.218,1.279-4.435-1.62-2.3-4.348-1.874-12.022.424-2.3.938-4.093,4.177,2.389,6.821,2.387a20.735,20.735,0,0,0,6.691-1.833q4.044-1.6,10.018-4.647,12.536-6.65,13.558-7.247,7.758-4.6,14.578-8.1,2.22-1.11,4.094-1.961a13.265,13.265,0,0,1,1.791,5.968A140.663,140.663,0,0,0,737.113,821.407Zm-84.156,19.7a56.426,56.426,0,0,1,.512,8.271q-.169,3.5-3.411,8.782a6.554,6.554,0,0,0,5.842-1.961q-.264.826-.554,1.705-.6,1.79-1.194,3.411a72.148,72.148,0,0,1-3.5,7.418,11.623,11.623,0,0,1-1.364.256q-2.9.767-4.689,1.194a109.98,109.98,0,0,1,4.348-14.239,71.843,71.843,0,0,0,3.965-15.39Z" transform="translate(55.151 18.452)" fill="#cedefe" fill-rule="evenodd"/>
    <path id="Trazado_1748" data-name="Trazado 1748" d="M679.232,783.458c-.31.014-.622.041-.938.085a27.55,27.55,0,0,0-5.116.981q-2.985.512-8.782,2.132a44.485,44.485,0,0,1,8.867-4.007c.5-.174,1.013-.346,1.533-.512a12.911,12.911,0,0,1,3.924-.085q.258.056.512.128a9.3,9.3,0,0,1,3.069,1.492A14.4,14.4,0,0,0,679.232,783.458Zm-23.406,33.38q.031-.977.044-1.961a159.588,159.588,0,0,0-2.217-17.308q2.474,1.279,5.542-1.79,3.154-3.157,3.325-4.86,1.02-1.535-.341-4.348l-1.75.043,2.345-1.663a5.727,5.727,0,0,1-.3.725,6.029,6.029,0,0,1-.384.725l1.107-.256a9.668,9.668,0,0,1,2.6-2.3,14.112,14.112,0,0,1,2.43-1.194c-.206.2-.4.382-.6.554a16.27,16.27,0,0,1-4.009,2.771l.769.682.682.682a65.164,65.164,0,0,1,19.95-.213q1.765.258,3.5.639l-.172-1.876.6.767a22.381,22.381,0,0,0,2.471,5.883,18.208,18.208,0,0,0-2.217-5.457q1.11.256,2.9,2.729a3.449,3.449,0,0,1,.341,4.519l-1.194-1.194-.511,1.791c-.08.167-.165.338-.258.512a16.521,16.521,0,0,1-2.812,3.581q-3.154,3.154-3.924,4.007l1.963-1.364a23.327,23.327,0,0,0,3.837-2.9q-.087,1.366-.171,3.666l.339,3.922a8.887,8.887,0,0,1-1.791,4.519q-.253-3.5-.426-4.775-.425-2.814-4.178,1.279l-.169,1.194a7.815,7.815,0,0,1-3.2-.128c-.051-.015-.092-.029-.13-.043q-.67-.253-1.362-.554-2.888-1.161-6.311-2.942l-7.162-4.178a118.6,118.6,0,0,0,9.338,9.635q.775.724,1.577,1.449l2.473,2.046a10.565,10.565,0,0,0,2.727,1.705q.427,0,2.558-2.558a7.656,7.656,0,0,0,.426,1.705q-1.279,5.714-6.309,7.5a36.155,36.155,0,0,1-9.633,1.535,19.212,19.212,0,0,1-2.389-.085q-.381-.09-.767-.213A16.84,16.84,0,0,1,655.825,816.839Zm27.328-16.115a46.106,46.106,0,0,0-6.565-3.666q-4.691-2.3-6.651-3.5l3.579.256q-5.2-1.706-9.292-2.9l-2.046,2.3q5.54,3.581,9.038,5.713a66,66,0,0,0,9.805,4.689Z" transform="translate(61.534)" fill="#452312" fill-rule="evenodd"/>
    <path id="Trazado_1749" data-name="Trazado 1749" d="M670.363,980.073a7.5,7.5,0,0,1-3.624,2.132q-.312-.66-.812-2.046-.609-1.658-1.492-4.349a29.517,29.517,0,0,0-2.728-6.054,11.829,11.829,0,0,0-2.089-.682,18.942,18.942,0,0,0-3.2-.426h-5.455a8.5,8.5,0,0,1-1.2-5.8,9.59,9.59,0,0,1,2.387-5.713,8.785,8.785,0,0,1,7.162.341,13.738,13.738,0,0,1,5.457,4.689,39.7,39.7,0,0,0,1.663,5.713,20.067,20.067,0,0,0,2.005,3.922l.083.426A50.861,50.861,0,0,0,671,979.05,4.318,4.318,0,0,1,670.363,980.073Z" transform="translate(58.752 123.13)" fill="#003151" fill-rule="evenodd"/>
    <path id="Trazado_1750" data-name="Trazado 1750" d="M658.531,873.712a59.293,59.293,0,0,0,1.023,8.313q.171,4.264.938,15.177.417,5.3.64,9.379l-7.2,5.627-16.884-21.657,11.681-9.123,7.5-5.926Z" transform="translate(49.821 64.721)" fill="#003151" fill-rule="evenodd"/>
    <path id="Trazado_1751" data-name="Trazado 1751" d="M669.209,947.271q.627-2.545,1.194-4.86,5.456-22.4,5.458-24.641,0-5.8-4.35-19.525-.593-1.849-1.108-3.5Q667.08,884,667.077,881.193q0-1.622,3.242-12.789c.027-.1.056-.2.084-.3q1.41-4.952,2.9-9.422h.254a2.842,2.842,0,0,1,.682-.085h.171l4.435-.512a1.561,1.561,0,0,1,.51-.085,1.374,1.374,0,0,1,.426-.085,2.531,2.531,0,0,0,.6-.085,113.916,113.916,0,0,1,11.683-1.194,57.251,57.251,0,0,1,6.052,17.564q1.195,8.014,1.364,11.766.767,15.263-3.837,37.857-1.195,6.139-4.006,18.587-1.706,8.185-2.558,14.495a101.662,101.662,0,0,1-15.347,1.62l-6.993.17H666.4Q667.845,953.069,669.209,947.271Z" transform="translate(70.52 52.679)" fill="#003151" fill-rule="evenodd"/>
    <path id="Trazado_1752" data-name="Trazado 1752" d="M652.471,925.51q-.077-2.522-.3-5.883-.222-4.077-.64-9.379-.767-10.912-.938-15.177a59.286,59.286,0,0,1-1.025-8.313,47.535,47.535,0,0,1,.128-6.267q.092-.954.213-1.876a35.628,35.628,0,0,1,4.435-13.6q.524-.885,1.107-1.748,1.622-2.9,2.474-4.349a6.84,6.84,0,0,1,3.92-2.814q7.42,4.6,19.7,3.922c.2-.024.4-.036.6-.043.295-.029.578-.042.853-.042q.936-.087,2.046-.256-1.491,4.469-2.9,9.422c-.029.1-.056.2-.085.3q-3.241,11.168-3.24,12.789,0,2.806,3.325,13.557.514,1.645,1.107,3.5,4.348,13.726,4.35,19.525,0,2.238-5.457,24.641-.568,2.315-1.194,4.86-1.366,5.8-2.815,11.425h-9.292a67.482,67.482,0,0,1-12.278-1.961q-1.151-.322-2.217-.64-2.333-.76-4.263-1.577Q653.068,942.989,652.471,925.51Zm43.058,128.15a20.8,20.8,0,0,1,4.263,2.132q4.264,2.985-.169,7.077l-4.178.6a30.863,30.863,0,0,1-4.094-.085,83.765,83.765,0,0,1-4.858-7.333q-1.435-2.435-2.728-4.22a22.982,22.982,0,0,0-2.387-2.771,17.232,17.232,0,0,0-6.311-2.9,42.219,42.219,0,0,1-6.563-2.473l-.085-.426a11.918,11.918,0,0,1,.938-4.434,13.674,13.674,0,0,1,1.533-2.643q2.816-3.753,6.309-2.132a18.923,18.923,0,0,1,4.135,3.837q.737.9,1.492,1.961c.09.111.176.223.257.341q.765,1.108,1.535,2.3,4.6,7.247,6.734,9.379.4.2,1.792.81Q694.1,1053.068,695.529,1053.66Z" transform="translate(58.621 52.305)" fill="#00558c" fill-rule="evenodd"/>
    <path id="Trazado_1753" data-name="Trazado 1753" d="M668.069,981.2q-.085,1.363-.084,4.178a18.9,18.9,0,0,1-.6,3.837q-1.791-1.791-2.3-7.588a25.064,25.064,0,0,0-1.407-7.674,7.081,7.081,0,0,0-.552-1.023,50.779,50.779,0,0,1-2.473-6.821,42.206,42.206,0,0,0,6.563,2.473,17.232,17.232,0,0,1,6.311,2.9,22.99,22.99,0,0,1,2.387,2.771q1.294,1.788,2.728,4.221A83.8,83.8,0,0,0,683.5,985.8a30.863,30.863,0,0,0,4.094.085l4.178-.6a13.613,13.613,0,0,1-8.784,1.279,35.892,35.892,0,0,1-8.526-2.9,24.557,24.557,0,0,1-1.874-5.286q-.819-2.7-1.492-4.348c-.164-.384-.321-.723-.471-1.023a10.093,10.093,0,0,0-.723.981A16.135,16.135,0,0,0,668.069,981.2Z" transform="translate(66.47 129.883)" fill="#333" fill-rule="evenodd"/>
    <path id="Trazado_1754" data-name="Trazado 1754" d="M651.971,970.571a12.387,12.387,0,0,0-.938-4.732,6.2,6.2,0,0,0-.426-.9l-.254-.938h5.455a18.919,18.919,0,0,1,3.2.426,11.835,11.835,0,0,1,2.091.682,29.622,29.622,0,0,1,2.727,6.054q.882,2.693,1.492,4.348.5,1.386.812,2.046-.683.683-3.5.512a23.7,23.7,0,0,0-4.432-.085,31.191,31.191,0,0,0,.256,3.24,23.423,23.423,0,0,1,.085,3.325q-1.878.512-2.3-1.791a10.288,10.288,0,0,0-.426-3.666q.087-1.279-1.959-1.364-2.062-.085-2.046-1.279v-.085A57.4,57.4,0,0,0,651.971,970.571Z" transform="translate(59.206 128.401)" fill-rule="evenodd"/>
    <path id="Trazado_1755" data-name="Trazado 1755" d="M659.7,1075.145q-1.962-10.656-3.069-16.029-1.962-9.38-4.009-15.944-.269-1.028-.467-2.089a39.24,39.24,0,0,1-.469-10.786q.169-2.366.6-4.86.343-1.535,2.3-9.89a19.065,19.065,0,0,1,2.386,2.046,34.882,34.882,0,0,1,3.924,4.9,51.885,51.885,0,0,1,4.6,8.782,84.534,84.534,0,0,1,3.668,11.127,16.3,16.3,0,0,1,.256,1.663,150.742,150.742,0,0,1-.087,16.413,23.534,23.534,0,0,0,1.451,8.1q-.343,3.921-.426,6.224.169,1.45.426,5.542a46.049,46.049,0,0,0,.512,5.372,13.742,13.742,0,0,0-5.458-4.689,8.785,8.785,0,0,0-7.162-.341A27.773,27.773,0,0,1,659.7,1075.145ZM643.581,893.535q7.075,4.18,7.757,4.945a12.818,12.818,0,0,1,1.025,1.364q-.087,2.389-.087,4.945.087,6.055.684,18.076a12.212,12.212,0,0,0,1.279,6.395,26.337,26.337,0,0,0,2,3.325,47.535,47.535,0,0,0-.128,6.267l-2.3,1.791a14.919,14.919,0,0,0-3.411-3.453,1.343,1.343,0,0,0-.512.341.526.526,0,0,0-.172.6,7.337,7.337,0,0,0,1.62,2.217q-2.471,1.023-5.626,5.883c0-.113-.029-.171-.085-.171a46.477,46.477,0,0,0,.341-14.409q-.6-4.691-2.73-14.324-2.131-9.464-2.727-14.409a44.647,44.647,0,0,1,.169-11.084Q641.875,892.51,643.581,893.535Zm115.36-80.914q10.316-5.627,14.239-9.123a18.266,18.266,0,0,1,4.432-9.805q5.29-5.372,7.761-7.929,1.875-1.79,2.9-2.643,1.791-1.45,3.325-.512a8.577,8.577,0,0,1-2.727,4.007q-2.642,2.558-2.984,3.751a11.653,11.653,0,0,1,5.285,6.139q1.706,4.52-2.3,6.736a45.438,45.438,0,0,0-9.464,6.395q-2.816,2.645-8.015,8.1-2.474,2.558-4.348,4.519a39.761,39.761,0,0,1-6.141,1.023,27.9,27.9,0,0,1-8.441-1.705q-1.875-.512-4.943-1.62A84.1,84.1,0,0,1,758.941,812.621Zm-66.166-5.457q3.752-4.093,4.178-1.279.171,1.279.426,4.775a8.887,8.887,0,0,0,1.791-4.519l-.339-3.922q.084-2.3.171-3.666a19.469,19.469,0,0,0,1.021-3.027,63.077,63.077,0,0,1,2.132,10.445,18.446,18.446,0,0,1,.853,11.34,16.575,16.575,0,0,1-1.533,3.666,39.917,39.917,0,0,0-3.325-3.666l-3.411-4.86a4.949,4.949,0,0,1-1.662.085,32.364,32.364,0,0,1-.469-4.178Zm-8.866,274.972a121.529,121.529,0,0,0-1.194-16.626q-1.962-15.26-2.132-16.626a23.617,23.617,0,0,1-.725-3.027,29.208,29.208,0,0,1-.385-7.631,58.24,58.24,0,0,1,1.622-9.677q.072-.412.169-.81,1.11-4.86,1.792-7.588,1.619,2.3,3.922,5.372.66.885,1.279,1.748c.145.206.286.406.426.6a40.454,40.454,0,0,1,5.2,9.891,16.7,16.7,0,0,1,.853,4.988q0,2.76-.13,5.67a226.214,226.214,0,0,1-3.707,31.675q-.972,5.525-1.622,10.146-.084.644-.169,1.279c.089.147.172.29.254.426q-.755-1.062-1.492-1.961a18.923,18.923,0,0,0-4.135-3.837A26.3,26.3,0,0,0,683.91,1082.136Z" transform="translate(52.081 0.21)" fill="#ffaa83" fill-rule="evenodd"/>
    <path id="Trazado_1756" data-name="Trazado 1756" d="M688.933,1079.021q.084-.634.169-1.279.65-4.62,1.622-10.146a226.218,226.218,0,0,0,3.707-31.675q.128-2.911.13-5.67a16.7,16.7,0,0,0-.853-4.988,40.451,40.451,0,0,0-5.2-9.891c-.14-.191-.281-.391-.426-.6q-.619-.862-1.279-1.748-2.3-3.07-3.922-5.372.6-2.3.68-2.814.427-2.985.684-5.542h.6l6.993-.171a101.67,101.67,0,0,0,15.347-1.62q-.343,2.218-.513,4.093a70.348,70.348,0,0,0-3.837,15.177q-.53,3.954-1.021,9.933-.218,2.627-.426,5.67-.268,2.3-.556,4.647-2.039,15.542-5.67,32.442.079.473.812,9.464c.041.5.085,1.006.128,1.535a81.111,81.111,0,0,0,1.618,11q-2.131-2.133-6.734-9.379-.77-1.194-1.535-2.3c-.082-.118-.167-.23-.257-.341C689.105,1079.311,689.022,1079.168,688.933,1079.021ZM651.16,885.986q-.68-.767-7.757-4.945-1.706-1.023-2.9-1.705a27.87,27.87,0,0,1,.512-3.24,13.3,13.3,0,0,0,6.309-.171h.172q1.788-.424,4.689-1.194a11.623,11.623,0,0,0,1.364-.256,69.2,69.2,0,0,0-1.364,12.875A12.818,12.818,0,0,0,651.16,885.986Zm-5.116,48a2.1,2.1,0,0,0-.51-.256q3.154-4.86,5.626-5.883a7.337,7.337,0,0,1-1.62-2.217.526.526,0,0,1,.172-.6,1.343,1.343,0,0,1,.512-.341,14.919,14.919,0,0,1,3.411,3.453l-7.5,5.926Zm105.131-121.5q-2.816-3.924-6.309-2.729,1.108-1.11,2.473-2.3,3.069,1.107,4.943,1.62a27.9,27.9,0,0,0,8.441,1.705,39.761,39.761,0,0,0,6.141-1.023q-1.962,1.962-3.325,3.155a2.949,2.949,0,0,1-.341.426,45.066,45.066,0,0,1-9.379,6.48,13.265,13.265,0,0,0-1.791-5.968C751.743,813.4,751.458,812.943,751.175,812.49Zm-64.119-2.984q5.031-1.791,6.309-7.5a7.656,7.656,0,0,1-.426-1.705c-.014-.089-.029-.172-.041-.256a4.949,4.949,0,0,0,1.662-.085l3.411,4.86a39.917,39.917,0,0,1,3.325,3.666q-1.962,3.069-6.652,4.007-1.453.307-2.9.469a27.845,27.845,0,0,1-6.906-.213c-.341-.113-.624-.2-.853-.256a6.374,6.374,0,0,1-.68-.256,42.2,42.2,0,0,1-5.883-1.194A36.155,36.155,0,0,0,687.055,809.505Zm-17.905,238.48a150.742,150.742,0,0,0,.087-16.413,16.3,16.3,0,0,0-.256-1.663,84.536,84.536,0,0,0-3.668-11.127,51.891,51.891,0,0,0-4.6-8.782,34.882,34.882,0,0,0-3.924-4.9,19.065,19.065,0,0,0-2.386-2.046q.767-2.729,1.62-6.054c.113-.512.227-.994.339-1.449a1.375,1.375,0,0,0,.087-.426q1.931.818,4.263,1.577,1.067.317,2.217.64a67.482,67.482,0,0,0,12.278,1.961q-3.011,10.492-2.6,18.2.046.8.128,1.577-.171,5.331-.6,13-.22,3.965-.511,8.569-.6,9.636-1.021,15.432A23.536,23.536,0,0,1,669.15,1047.985Z" transform="translate(52.259 12.705)" fill="#ed9870" fill-rule="evenodd"/>
    <path id="Trazado_1757" data-name="Trazado 1757" d="M660.3,806.281q.386.123.767.213a19.212,19.212,0,0,0,2.389.085,42.2,42.2,0,0,0,5.883,1.194,6.374,6.374,0,0,0,.68.256c.229.058.512.143.853.256a27.845,27.845,0,0,0,6.906.213c.024.252.051.523.087.81l-.767,2.132c-.172.682-.341,1.393-.511,2.131-.172.795-.285,1.422-.341,1.876-.425-.094-.993-.206-1.705-.341q-2.22-.363-6.309-.938a50.28,50.28,0,0,1-7.931-1.449Q660.376,811.618,660.3,806.281Z" transform="translate(66.223 17.165)" fill="#ce7c56" fill-rule="evenodd"/>
    <path id="Trazado_1758" data-name="Trazado 1758" d="M650.461,965.537a27.968,27.968,0,0,0,.256,4.817q.169.767,1.023,5.627a57.4,57.4,0,0,0,.169-5.8,12.387,12.387,0,0,0-.938-4.732,6.2,6.2,0,0,0-.426-.9C650.514,964.875,650.485,965.2,650.461,965.537Z" transform="translate(59.269 128.789)" fill="#595959" fill-rule="evenodd"/>
    <path id="Trazado_1759" data-name="Trazado 1759" d="M662.414,789.474q-.77.6-2.132,1.449-.893.535-1.451.938a5.339,5.339,0,0,0-.767.6,2.89,2.89,0,0,0-.339,1.535,4.015,4.015,0,0,0,.171,1.023q.427.767,1.194,2.473a159.588,159.588,0,0,1,2.217,17.308q-.013.985-.044,1.961-.084,9.357-.041,18.417.041,3.208.085,6.395a70.343,70.343,0,0,1-.769,14.324l-.6,3.922a50.281,50.281,0,0,1-1.323,7.46,22.406,22.406,0,0,1-1.746,4.6,11.2,11.2,0,0,1-1.918,2.686,6.554,6.554,0,0,1-5.842,1.961q3.241-5.285,3.411-8.782a56.426,56.426,0,0,0-.512-8.271l-.041-.554-.043-.554q-.327-6.405-1.2-12.7c-.067-.51-.136-1.021-.213-1.535q-.923-6.065-2.345-12.022a96.325,96.325,0,0,1-2.215-17.905,43.117,43.117,0,0,1,4.519-20.463,21.247,21.247,0,0,1,3.665-4.178,8.934,8.934,0,0,1,2.73-1.364c.191-.056.391-.113.6-.171q2.215-.683,3.666-1.108a5.592,5.592,0,0,0,.766,1.194,2.332,2.332,0,0,1,.213.3,2.07,2.07,0,0,1,.3.81Zm16.285-6.906a44.485,44.485,0,0,0-8.867,4.007q5.8-1.622,8.782-2.132a27.55,27.55,0,0,1,5.116-.981c.315-.044.628-.072.938-.085a14.4,14.4,0,0,1,3.069.213,15.537,15.537,0,0,1,6.052,2.217l.172,1.876q-1.734-.381-3.5-.639a65.164,65.164,0,0,0-19.95.213l-.682-.682-.769-.682a16.27,16.27,0,0,0,4.009-2.771c.193-.172.39-.356.6-.554a14.112,14.112,0,0,0-2.43,1.194,9.668,9.668,0,0,0-2.6,2.3l-1.107.256a6.029,6.029,0,0,0,.384-.725,5.727,5.727,0,0,0,.3-.725,7.411,7.411,0,0,1,2.474-1.449,13.753,13.753,0,0,1,2.984-.853,16.958,16.958,0,0,1,3.24-.256l3.323-.256C679.712,782.221,679.2,782.394,678.7,782.568Zm18.159,9.89a22.381,22.381,0,0,1-2.471-5.883l.254.426A18.208,18.208,0,0,1,696.859,792.458Zm-.853,3.2a19.469,19.469,0,0,1-1.021,3.027,23.327,23.327,0,0,1-3.837,2.9l-1.963,1.364q.77-.852,3.924-4.007a16.521,16.521,0,0,0,2.812-3.581c.092-.174.177-.345.258-.512A5.663,5.663,0,0,1,696.006,795.655Zm-19.353,3.2q-3.5-2.133-9.038-5.713l2.046-2.3q4.093,1.195,9.292,2.9l-3.579-.256q1.959,1.195,6.651,3.5a46.106,46.106,0,0,1,6.565,3.666l-2.132,2.9A66,66,0,0,1,676.653,798.853Zm9.889,16.626a10.565,10.565,0,0,1-2.727-1.705l-2.473-2.046q-.8-.724-1.577-1.449a118.6,118.6,0,0,1-9.338-9.635l7.162,4.178q3.422,1.778,6.311,2.942.691.3,1.362.554c.037.014.078.027.13.043a7.815,7.815,0,0,0,3.2.128,32.364,32.364,0,0,0,.469,4.178c.012.084.027.167.041.256Q686.969,815.479,686.542,815.479Z" transform="translate(56.098 0.081)" fill="#713d22" fill-rule="evenodd"/>
    <path id="Trazado_1760" data-name="Trazado 1760" d="M654.219,794.526q2.474,1.279,5.542-1.79,3.154-3.157,3.325-4.86a7.313,7.313,0,0,0-1.451-.426,34.981,34.981,0,0,0-4.091-1.194v.256q-.77.6-2.132,1.449-.893.535-1.451.938a5.339,5.339,0,0,0-.767.6,2.89,2.89,0,0,0-.339,1.535,4.015,4.015,0,0,0,.171,1.023Q653.452,792.821,654.219,794.526Z" transform="translate(60.968 3.043)" fill="#bd0e4d" fill-rule="evenodd"/>
    <path id="Trazado_1761" data-name="Trazado 1761" d="M661.674,789q1.02-1.535-.341-4.348l-1.75.043-2.855.043-1.876.341a5.592,5.592,0,0,0,.766,1.194,2.332,2.332,0,0,1,.213.3,2.07,2.07,0,0,1,.3.81,34.981,34.981,0,0,1,4.091,1.194A7.313,7.313,0,0,1,661.674,789Z" transform="translate(62.38 1.914)" fill="#f51969" fill-rule="evenodd"/>
  </g>
</svg>
