<svg xmlns="http://www.w3.org/2000/svg" width="282.092" height="586.545" viewBox="0 0 282.092 586.545">
  <g id="Grupo_10024" data-name="Grupo 10024" transform="translate(-414.968 -486.612)">
    <path id="Trazado_1602" data-name="Trazado 1602" d="M449.94,866.79V872.6l96.212,17.841,109.639-21.73v-8.083l41.269,8.211L546.376,898.654,414.968,873.739Z" transform="translate(0 174.504)" fill="#1d1d1b" fill-rule="evenodd" opacity="0.15"/>
    <path id="Trazado_1603" data-name="Trazado 1603" d="M483.534,521.255H483.5c-.441.245-.88.513-1.32.807q-2.475,1.6-4.438,2.823-.8-1.652-1.575-3.337-.807-1.832-1.687-3.74a7.925,7.925,0,0,0,4.178-1.613l.808-.587a.84.84,0,0,1,.22-.147,16.974,16.974,0,0,1,1.172,1.687Q482.282,519.348,483.534,521.255Zm105.336,7.993q.864-2.924,1.1-4.033a29.451,29.451,0,0,1,.293-3.52c.585.245,1.125.49,1.613.733a10.462,10.462,0,0,1,2.86,2.566.544.544,0,0,0,.073.22q-.365,2.492-.733,4.693-.284,1.815-.55,3.41c.059-.393.119-.795.183-1.21A23.816,23.816,0,0,0,588.87,529.248Z" transform="translate(27.765 13.46)" fill="#dbdfff" fill-rule="evenodd"/>
    <path id="Trazado_1604" data-name="Trazado 1604" d="M500,690.158c.032-.252.067-.534.109-.843.041-.177.076-.361.111-.55q.367-1.98.733-3.52a6.85,6.85,0,0,0,2.713,2.567,11.3,11.3,0,0,0,1.723.586,12.5,12.5,0,0,0,1.943.293l.44.073a29.425,29.425,0,0,1,3.518-.513,7.386,7.386,0,0,1,1.1-.367q-.073,1.1-.145,1.907v.22a2.62,2.62,0,0,0,.293.807,1.137,1.137,0,0,0,.073.147q.13.59-3.888,1.173a11.861,11.861,0,0,1-3.372-.073A16.909,16.909,0,0,1,500,690.158Zm24.712-7.846a37.258,37.258,0,0,0,5.206,2.933,15.776,15.776,0,0,0,4.033,1.247,11.139,11.139,0,0,1,1.1.22,7.151,7.151,0,0,0,1.687-.44,3.506,3.506,0,0,0,1.173-.807q.218.295.807.953a15.061,15.061,0,0,0,1.538,1.613,4.85,4.85,0,0,0,.441.513q-.513.147-1.1.293a22.483,22.483,0,0,1-2.86.44,26.684,26.684,0,0,1-4.84.073,17.235,17.235,0,0,1-8.508-2.787.2.2,0,0,0,.075-.147v-.22c.1-.147.22-.318.367-.513a4.7,4.7,0,0,1,.147-.733A24.45,24.45,0,0,0,524.713,682.312Zm.367,18.992c-.245-.1-.488-.2-.733-.293a39.753,39.753,0,0,1-4.106-2.713,23.745,23.745,0,0,1,.44-2.346l.512-2.273a.64.64,0,0,1,.075-.293v-.22a.213.213,0,0,1,.073-.147v-.073a36.408,36.408,0,0,1,7.26,2.273q2.1.876,4.033,1.65c.155.059.314.12.475.183q11.637,4.6,16.1,4.913,6.892.515,10.559.44a3.217,3.217,0,0,1,.367,2.786,40.515,40.515,0,0,1-12.466.587,52.917,52.917,0,0,1-11.659-2.933,2.69,2.69,0,0,1-.367-.147c-.293-.048-.66-.1-1.1-.147q-2.567-.365-6.893-.807Zm-3.373,7.333q-1.612.147-5.133.367a36.789,36.789,0,0,1-5.5.147q-6.234-.44-8.653-4.4-1.32-.88-1.907-1.246a8.044,8.044,0,0,1-1.688-1.76c.051-.342.123-.88.221-1.613a7.859,7.859,0,0,0,.073-1.1,16.893,16.893,0,0,1,4.766,3.373,13.786,13.786,0,0,0,3.372,2.64,19.578,19.578,0,0,0,4.766,1.76,26.775,26.775,0,0,0,9.828-.88.661.661,0,0,1,.072.293,2.522,2.522,0,0,1,0,.88C521.877,707.587,521.8,708.1,521.707,708.637Z" transform="translate(39.126 91.307)" fill="#0d8e90" fill-rule="evenodd"/>
    <path id="Trazado_1605" data-name="Trazado 1605" d="M521.246,691.592c.114-.458.249-.922.4-1.393q.15-.51.331-1.027.3-.889.585-1.687c.15-.411.3-.8.441-1.173q.147-.585.292-1.1A17.235,17.235,0,0,0,531.806,688a26.679,26.679,0,0,0,4.84-.073,22.461,22.461,0,0,0,2.86-.44q.587-.145,1.1-.293A6.344,6.344,0,0,1,542,689.758q.682.713,1.358,1.357a29.405,29.405,0,0,0,11.036,7c.241.075.484.148.733.22a8.59,8.59,0,0,1,3.666,1.833l.88.88q-3.667.075-10.559-.44-4.461-.31-16.1-4.913c-.161-.063-.32-.125-.475-.183q-1.929-.774-4.033-1.65A36.417,36.417,0,0,0,521.246,691.592Zm-1.173,6.16a4.988,4.988,0,0,0,.073-.807,39.75,39.75,0,0,0,4.106,2.713c.245.1.488.2.733.293A13.022,13.022,0,0,1,520.073,697.751Zm-.587,3.593,1.393,1.393a4.272,4.272,0,0,1,.88,1.833,26.775,26.775,0,0,1-9.828.88,19.573,19.573,0,0,1-4.766-1.76,13.786,13.786,0,0,1-3.372-2.64,16.894,16.894,0,0,0-4.766-3.373c.048-.39.123-.855.22-1.393a1.384,1.384,0,0,1,.073-.807q.145-1.54.293-3.446c0-.106,0-.214,0-.33q.092-1.56.293-2.9a16.909,16.909,0,0,0,5.353,1.906,11.861,11.861,0,0,0,3.372.073q4.019-.585,3.888-1.173a10.34,10.34,0,0,0,.44,1.32,31.014,31.014,0,0,0,1.613,3.006q.88,1.833,1.392,3.006A32.965,32.965,0,0,0,519.487,701.344Z" transform="translate(39.219 92.66)" fill="#0e7c7c" fill-rule="evenodd"/>
    <path id="Trazado_1606" data-name="Trazado 1606" d="M541.429,722.191,437.451,703.859h-.073l64.529-11.366v3.7l-47.81,8.4,27.352,4.766,37.544-6.6a2.2,2.2,0,0,0-.22.953q0,3.447,10.925,5.866a147.2,147.2,0,0,0,53.163,0q11-2.42,11-5.866,0-3.4-10.7-5.793a29.4,29.4,0,0,1-11.036-7l73.108,12.906-103.8,18.3Zm.588-36.554,9.311,1.65q-.288.8-.585,1.686-.183.517-.331,1.027l-6.708-1.173-2.493.44a2.617,2.617,0,0,1-.293-.807v-.22q.073-.805.145-1.906l.955-.587Zm-30.211,8.8v-3.7l16.974-2.97c-.041.309-.076.591-.109.843q-.2,1.335-.293,2.9Z" transform="translate(10.456 92.858)" fill="#ff65a7" fill-rule="evenodd"/>
    <path id="Trazado_1607" data-name="Trazado 1607" d="M465.618,713.862a6.905,6.905,0,0,1,.367-2.2q0-.293,12.1-40.257L446.553,653a6.547,6.547,0,0,1-2.273-2.566v-.293a6.957,6.957,0,0,1,0-5.06,9.009,9.009,0,0,1,2.273-3.74c0-.2.122-.318.367-.367a7.26,7.26,0,0,1,3.885-2.42l38.426-6.746,10.853-35.931q.955-2.713,1.54-4.473a29.417,29.417,0,0,1,1.76-3.886,5.953,5.953,0,0,1,1.173-1.467,4.582,4.582,0,0,1,2.2-1.027,8.846,8.846,0,0,1,2.712-.147l.881.147a6.35,6.35,0,0,1,3.813,2.347,8.747,8.747,0,0,1,.953,1.906q1.32,3.227,2.418,6.6l8.728,25.958,1.172,3.3,2.055-.367q.119.814.293,1.613.66,7.774,1.173,22.732.585,15.254,1.32,22.512a22.436,22.436,0,0,1-1.76,6.966q-.66,1.907-2.933,6.82a54.81,54.81,0,0,0-2.715,6.6,20.382,20.382,0,0,0-1.135,5.463l-15.364-8.616-2.567,2.42-6.891,6.453-21.778,20.312a9.1,9.1,0,0,1-4.253,2.053,6.877,6.877,0,0,1-2.493-.22h-.22a4.265,4.265,0,0,1-1.54-.66,5.393,5.393,0,0,1-1.688-1.687l-.438-.587a3.075,3.075,0,0,1-.513-1.246A8.6,8.6,0,0,1,465.618,713.862Z" transform="translate(13.454 45.825)" fill="#ffdb59" fill-rule="evenodd"/>
    <path id="Trazado_1608" data-name="Trazado 1608" d="M481.808,513.954l.513,3.52a1.768,1.768,0,0,1-.293,1.247,1.443,1.443,0,0,1-.112.147,3.829,3.829,0,0,1-.768.733,2.354,2.354,0,0,1-1.027.367,2.673,2.673,0,0,1-.66-.073l-.037-.037a.707.707,0,0,0,.109-.4q.222-.293.075-.44a3.787,3.787,0,0,0-1.32-.22h-.221l-.622-.55c.2-.081.479-.189.843-.33a9.1,9.1,0,0,1,1.027-.513.769.769,0,0,1,.073-.44.837.837,0,0,1-.147-.22q-.662-.733-2.566-.22l-.075-.293a3.316,3.316,0,0,0,1.028-.367q.735-.66.293-1.1a6.169,6.169,0,0,0-1.906-.807,9.712,9.712,0,0,0-2.786-.513,2.152,2.152,0,0,0-2.128.587l-8.651,5.28a2.183,2.183,0,0,1-1.1.293l-.66-.22h-.073c-.2-.147-.293-.245-.293-.293a1.168,1.168,0,0,1-.367-.44.216.216,0,0,0-.073-.147,2.026,2.026,0,0,1-.073-.44v-.44a1.612,1.612,0,0,1,.22-.513q0-.145,5.133-9.533l-7.04-6.233a1.8,1.8,0,0,1-.44-.807v-.073a2.067,2.067,0,0,1,.218-1.247,3.168,3.168,0,0,1,.808-.807.216.216,0,0,1,.073-.147,1.728,1.728,0,0,1,1.173-.367l10.045.22,4.548-8.506a5.282,5.282,0,0,1,.66-1.027c.147-.245.343-.537.587-.88a2.349,2.349,0,0,1,.367-.293,1.309,1.309,0,0,1,.587-.147,2.274,2.274,0,0,1,.44.037,1.187,1.187,0,0,1,.22.11h.292a2.133,2.133,0,0,1,.808.807.9.9,0,0,1,.147.513,11.126,11.126,0,0,1,.293,1.76l.807,7.04.145.88,9.9.147a.825.825,0,0,1,.258.037l.108.037.075.073h.073c.293.1.463.2.513.293a1.43,1.43,0,0,1,.513.953,1.677,1.677,0,0,1-.075.807.793.793,0,0,0-.145.44,4.435,4.435,0,0,1-.88.807l-9.313,6.013.11.7.11.88a9.873,9.873,0,0,0-3.227-1.137q-.44.147-1.173.367c-.1,0-.2.1-.293.293a.8.8,0,0,0,.073.367q.145.66,3.446,2.933A10.783,10.783,0,0,1,481.808,513.954Z" transform="translate(19.922 0.303)" fill="#ffdb59" fill-rule="evenodd"/>
    <path id="Trazado_1609" data-name="Trazado 1609" d="M519.3,671.041a15.615,15.615,0,0,1-1.8,2.2,8.51,8.51,0,0,1-3.52,2.42,7.3,7.3,0,0,1-2.713.073c-.638-.119-1.054-.192-1.247-.22q.1-.8.147-1.613a59.147,59.147,0,0,1,4.766-18.919q.517-1.2,1.025-2.42l3.116,8.763a25.041,25.041,0,0,0-.55,4.95Q518.99,668.771,519.3,671.041Z" transform="translate(44.352 77.427)" fill="#ffdb59" fill-rule="evenodd"/>
    <path id="Trazado_1610" data-name="Trazado 1610" d="M458.74,757.927l9.9,1.76a8.6,8.6,0,0,0,.367,1.833,3.075,3.075,0,0,0,.513,1.247l.438.587a5.394,5.394,0,0,0,1.688,1.687,4.262,4.262,0,0,0,1.54.66l-9.9-1.76a3.741,3.741,0,0,1-1.54-.587,5.409,5.409,0,0,1-1.688-1.687,4.24,4.24,0,0,1-.952-1.833A7.686,7.686,0,0,1,458.74,757.927Zm22.365-40.7-9.9-1.613-31.458-18.479a7.088,7.088,0,0,1-2.347-2.567v-.293l-.075-.073,9.974,1.76v.293a6.546,6.546,0,0,0,2.273,2.566Zm11.146-39.6-9.9-1.76,10.926-35.858q.88-2.64,1.467-4.473a36.419,36.419,0,0,1,1.76-3.886,4.545,4.545,0,0,1,3.373-2.42,7.711,7.711,0,0,1,2.712-.22l.588.147h.145l9.166,1.54a8.845,8.845,0,0,0-2.712.147,4.582,4.582,0,0,0-2.2,1.027,5.952,5.952,0,0,0-1.173,1.467,29.417,29.417,0,0,0-1.76,3.886q-.587,1.76-1.54,4.473ZM472.233,506.924l-7.041-6.233a1.832,1.832,0,0,1-.438-.807v-.073l2.42.953v.073a1.8,1.8,0,0,0,.44.807l7.04,6.233Zm-5.28,10.046,2.346.953v.44a2.026,2.026,0,0,0,.073.44.216.216,0,0,1,.073.147,1.169,1.169,0,0,0,.367.44c0,.048.1.147.293.293l-2.348-.953a1.8,1.8,0,0,1-.367-.22,2.908,2.908,0,0,1-.367-.513,3.055,3.055,0,0,1-.145-.513A1.6,1.6,0,0,1,466.953,516.97Zm12.538-18.552-2.418-.88,4.546-8.506a10.747,10.747,0,0,0,.66-1.1,6.7,6.7,0,0,1,.66-.88,1.108,1.108,0,0,1,.88-.44,1.624,1.624,0,0,1,.733.147h.147l1.98.843a2.274,2.274,0,0,0-.44-.037,1.31,1.31,0,0,0-.587.147,2.354,2.354,0,0,0-.367.293c-.243.343-.44.635-.587.88a5.281,5.281,0,0,0-.66,1.027Zm8.066,20.678h-1.172c.048-.147.048-.2,0-.147q-.075-.073.22-.22c.063-.041.172-.1.33-.183Zm-3.958-2.163-.258-.22q.381.086.771.183A3.477,3.477,0,0,0,483.6,516.933Zm43.41,230.4-15.179-8.543-3.008-1.687,2.567-2.42,15.364,8.616a14.5,14.5,0,0,0-.037,1.8Q526.854,746.108,527.009,747.331Z" transform="translate(10.432)" fill="#fd9c3c" fill-rule="evenodd"/>
    <path id="Trazado_1611" data-name="Trazado 1611" d="M481.239,713.847q-12.1,39.965-12.1,40.257a6.905,6.905,0,0,0-.367,2.2l-9.9-1.76a7.19,7.19,0,0,1,.367-2.127q0-.293,12.1-40.184Zm-33.8-21.265-9.974-1.76a7.029,7.029,0,0,1,.075-4.986,8.679,8.679,0,0,1,2.347-3.74.346.346,0,0,1,.293-.367,7.6,7.6,0,0,1,3.96-2.42l38.351-6.746v-.073l9.9,1.76L453.96,681a7.26,7.26,0,0,0-3.885,2.42c-.245.048-.367.172-.367.367a9.01,9.01,0,0,0-2.273,3.74A6.957,6.957,0,0,0,447.435,692.582Zm84.986-28.855a23.739,23.739,0,0,0,.221,3.483l-2.055.367-1.172-3.3Zm-65.334-150.14a1.179,1.179,0,0,1,.147-.513q0-.073,5.133-9.533l2.42.953q-5.132,9.387-5.133,9.533a1.612,1.612,0,0,0-.22.513Zm.22-16.206-2.42-.953a2.319,2.319,0,0,1,.22-1.247,3.165,3.165,0,0,1,.807-.807.065.065,0,0,1,.073-.073,2.188,2.188,0,0,1,1.172-.44l10.047.293,2.418.88-10.045-.22a1.728,1.728,0,0,0-1.173.367.216.216,0,0,0-.073.147,3.167,3.167,0,0,0-.808.807A2.067,2.067,0,0,0,467.307,497.382Zm32.374-1.87a.824.824,0,0,0-.258-.037l-9.9-.147-.145-.88,7.626.073a.913.913,0,0,1,.513.147Z" transform="translate(10.298 3.383)" fill="#ffbd59" fill-rule="evenodd"/>
    <path id="Trazado_1612" data-name="Trazado 1612" d="M541.406,1036.5l-103.978-21.353V765.994l103.978,18.332Zm26.913-476.634c-.235.091-.528.188-.881.293a8.506,8.506,0,0,1-1.8.4,2.851,2.851,0,0,1-.623-.037,18.738,18.738,0,0,1-1.65-3.74,1.532,1.532,0,0,1-.037-.22l1.833-3.776.147-.33.33.33,3.262,3.263a.648.648,0,0,1,0,.44q.018.587.038,1.063.035,1.626.037,1.8C568.948,559.512,568.727,559.683,568.319,559.868Z" transform="translate(10.479 30.723)" fill="#cb2069" fill-rule="evenodd"/>
    <path id="Trazado_1613" data-name="Trazado 1613" d="M514.12,580.537a44.58,44.58,0,0,1-8.616-2.567,100.1,100.1,0,0,1-9.094-4.4q-3.812-2.272-7.771-5.133l-5.061-7.553,8.433,1.246q12.541,8.507,17.527,11a27.787,27.787,0,0,0,2.822,1.21,30.2,30.2,0,0,0,14.63,1.357,21.337,21.337,0,0,0,7.626-2.53,13.129,13.129,0,0,0,1.173-.7,29.279,29.279,0,0,0,5.718-5.28c.179-.191.349-.386.515-.587a10.207,10.207,0,0,0,2.017-4.84,14.246,14.246,0,0,0,.183-2.567q-.051-.526-.11-.99a8.513,8.513,0,0,0,1.795-.4c.353-.106.647-.2.881-.293q.174.534.367,1.173a11.428,11.428,0,0,1,.074,5.9q-.112.59-.293,1.21a20.745,20.745,0,0,1-3.666,6.856q-.352.467-.733.917a17.318,17.318,0,0,1-5.83,4.473,22.826,22.826,0,0,1-3.631,1.357,28.916,28.916,0,0,1-4.033.843,49.386,49.386,0,0,1-13.932.44Q514.629,580.618,514.12,580.537Z" transform="translate(32.011 33.079)" fill="#ed428b" fill-rule="evenodd"/>
    <path id="Trazado_1614" data-name="Trazado 1614" d="M577.836,696.053q10.707,2.391,10.7,5.793,0,3.447-11,5.866a147.209,147.209,0,0,1-53.163,0q-10.922-2.42-10.924-5.866a2.2,2.2,0,0,1,.22-.953l-37.544,6.6-27.352-4.766,47.81-8.4v.843a2.568,2.568,0,0,0,1.392,2.2,6.311,6.311,0,0,0,3.521.953h.073a5.956,5.956,0,0,0,3.446-.953,2.557,2.557,0,0,0,1.467-2.2v-2.6l16.572-2.933c0,.116,0,.224,0,.33q-.145,1.907-.293,3.446a1.384,1.384,0,0,0-.073.807c-.1.538-.172,1-.22,1.393a7.861,7.861,0,0,1-.073,1.1c-.1.733-.17,1.271-.221,1.613a5.579,5.579,0,0,0,.148,4.18,3.748,3.748,0,0,0,3.373,2.126,16.093,16.093,0,0,0,8.8,2.86q1.467.148,9.386-.147.66.147,1.025-.66a14.416,14.416,0,0,1,.148-1.467c.1-.538.17-1.05.219-1.54a2.522,2.522,0,0,0,0-.88.66.66,0,0,0-.072-.293,4.273,4.273,0,0,0-.88-1.833,36.6,36.6,0,0,0,6.38,1.393,10.744,10.744,0,0,0,6.526-.88,94.373,94.373,0,0,0,12.832,2.933,36.167,36.167,0,0,0,13.272-.367,11.4,11.4,0,0,0,.147-1.98,3.217,3.217,0,0,0-.367-2.786l-.88-.88a8.59,8.59,0,0,0-3.666-1.833C578.32,696.2,578.076,696.128,577.836,696.053Z" transform="translate(15.775 94.725)" fill="#ed428b" fill-rule="evenodd"/>
    <path id="Trazado_1615" data-name="Trazado 1615" d="M517.379,688.985c-.153.471-.288.936-.4,1.393v.073a.213.213,0,0,0-.073.147v.22a.64.64,0,0,0-.075.293l-.512,2.273a23.752,23.752,0,0,0-.44,2.346,4.98,4.98,0,0,1-.073.807l-.587,3.593a32.95,32.95,0,0,1-3.521-4.4q-.513-1.172-1.392-3.006a30.993,30.993,0,0,1-1.613-3.006,10.328,10.328,0,0,1-.44-1.32,1.129,1.129,0,0,1-.073-.147l2.493-.44Z" transform="translate(43.489 93.873)" fill="#ed428b" fill-rule="evenodd"/>
    <path id="Trazado_1616" data-name="Trazado 1616" d="M491.277,756.808a2.573,2.573,0,0,1-1.467,2.163,5.956,5.956,0,0,1-3.446.953h-.073a6.312,6.312,0,0,1-3.521-.953,2.6,2.6,0,0,1-1.392-2.127V710.428l6.891-6.453,3.008,1.687Zm49.57-198.83,4.216,3.74a10.206,10.206,0,0,1-2.017,4.84q-.253-1.067-.515-2.126Q541.727,561.207,540.847,557.979Zm7.918,69.112q-2.119.163-4.033.22a174,174,0,0,0,2.055-28.415,150.923,150.923,0,0,0-2.493-26.288,20.747,20.747,0,0,0,3.666-6.856q.18-.62.293-1.21l.733.623,1.245-7.553.733,1.027q.295,1.833.515,3.666.145,1.32.367,2.64a191.508,191.508,0,0,1,.585,35.931v.073A211.282,211.282,0,0,1,548.765,627.091Z" transform="translate(30.985 33.126)" fill="#abb1eb" fill-rule="evenodd"/>
    <path id="Trazado_1617" data-name="Trazado 1617" d="M514.869,541.308a25.822,25.822,0,0,0-3.152,2.86q-2.2,2.275-4.548,5.133a24.774,24.774,0,0,1-.292-2.86q2.273-2.932,3.886-4.766,1.245-1.54,2.493-2.86a5.012,5.012,0,0,1,1.245,1.76A1.307,1.307,0,0,1,514.869,541.308Zm16.354-16.719a1.105,1.105,0,0,1,.66.66,10.393,10.393,0,0,1,1.393,3.593,7.636,7.636,0,0,1,.22,1.98,13.431,13.431,0,0,0-2.347-1.1,15.657,15.657,0,0,0-10.706-.587,21.779,21.779,0,0,0-5.72,3.08,19.292,19.292,0,0,0-3.74,3.373q-.367.367-2.715,2.786a22.366,22.366,0,0,1,1.761-3.593,14.8,14.8,0,0,1,7.259-6.306,1.842,1.842,0,0,1,.44-.22,4.762,4.762,0,0,0,.587.147,2.7,2.7,0,0,0,2.785-1.393l.733-1.613a1.4,1.4,0,0,0-.145-.88,3.121,3.121,0,0,1,1.54,1.1.823.823,0,0,0,.22-.147,2.228,2.228,0,0,0,.88.367,2.171,2.171,0,0,0,2.2-1.173,15.172,15.172,0,0,0,.805-1.467,2.318,2.318,0,0,0-.439-1.833q1.172-.073,1.98,1.687a13.456,13.456,0,0,1,.807,2.053v.147a1.892,1.892,0,0,0,.073.88c.1.44.318.685.66.733a.718.718,0,0,0,.88-.367,4.566,4.566,0,0,0,.147-.587A1.673,1.673,0,0,0,531.223,524.589Z" transform="translate(42.882 16.212)" fill="#7a3a1e" fill-rule="evenodd"/>
    <path id="Trazado_1618" data-name="Trazado 1618" d="M512.669,554.066A7.366,7.366,0,0,1,514.211,557a11.018,11.018,0,0,0,1.54,3.006,12.08,12.08,0,0,1-7.039-6.306,15.222,15.222,0,0,1-1.541-4.4q2.35-2.86,4.548-5.133a25.836,25.836,0,0,1,3.152-2.86,7.831,7.831,0,0,1,.515,2.053.477.477,0,0,0,0,.367,29.228,29.228,0,0,1-.587,5.646q-.955.735-1.907-.587a2.009,2.009,0,0,0-2.421-.66Q509.3,550.841,512.669,554.066Zm.588-15.252q-1.247,1.32-2.493,2.86-1.615,1.835-3.886,4.766a16,16,0,0,1,.147-2.126,21.441,21.441,0,0,1,1.245-5.94q2.349-2.42,2.715-2.786a19.294,19.294,0,0,1,3.74-3.373,21.78,21.78,0,0,1,5.72-3.08,15.656,15.656,0,0,1,10.706.587,13.427,13.427,0,0,1,2.347,1.1,26.944,26.944,0,0,1-.295,4.546,6.785,6.785,0,0,0-.585-.88c-.148-.147-.293-.293-.44-.44a.065.065,0,0,0-.075-.073,8.324,8.324,0,0,0-6.451-2.126,20.978,20.978,0,0,0-5.426,1.32,17.4,17.4,0,0,0-7.113,5.573C513.209,538.741,513.258,538.766,513.258,538.814Zm4.473-10.559a15.9,15.9,0,0,0,1.613-1.32q1.1-1.245,1.758-2.127v-.073a.435.435,0,0,1,.367-.22h.221a1.4,1.4,0,0,1,.145.88l-.733,1.613a2.7,2.7,0,0,1-2.785,1.393A4.762,4.762,0,0,1,517.731,528.255Zm13.492-3.666a1.673,1.673,0,0,1,.22,1.32,4.569,4.569,0,0,1-.147.587.718.718,0,0,1-.88.367c-.342-.048-.563-.293-.66-.733a1.892,1.892,0,0,1-.073-.88.656.656,0,0,0,.073.293Q530.636,524.442,531.223,524.588Zm-4.326-3.226a2.317,2.317,0,0,1,.439,1.833,15.19,15.19,0,0,1-.805,1.466,2.171,2.171,0,0,1-2.2,1.173,2.227,2.227,0,0,1-.88-.367,7.868,7.868,0,0,0,1.907-2.053q1.1-1.687,1.393-2.053Z" transform="translate(42.882 16.213)" fill="#452312" fill-rule="evenodd"/>
    <path id="Trazado_1619" data-name="Trazado 1619" d="M498.575,707.288q-.154-1.223-.293-2.237a14.491,14.491,0,0,1,.037-1.8,20.383,20.383,0,0,1,1.135-5.463,54.81,54.81,0,0,1,2.715-6.6q2.272-4.912,2.933-6.82a22.435,22.435,0,0,0,1.76-6.966q-.735-7.26-1.32-22.512-.515-14.959-1.173-22.732-.174-.8-.293-1.613a23.741,23.741,0,0,1-.221-3.483,28.721,28.721,0,0,1,.221-3.7,44.836,44.836,0,0,1,.733-4.766,15.2,15.2,0,0,1-2.2-1.98,12.353,12.353,0,0,1-2.788-7.333q11.162-6.582,13.457-9.533l.073-.073.035-.073q1.762-2.492,1.175-4.546a44.068,44.068,0,0,0-2.126-8.286q-.66-1.832-3.226-8.139-1.1-2.662-1.943-5.06.508.082.988.147a49.388,49.388,0,0,0,13.932-.44,28.916,28.916,0,0,0,4.033-.843l-.512,1.577a47.944,47.944,0,0,0-2.273,8.139q-.367,2.275,1.1,11.073t.585,14.372q0,.075-.659,3.373-.139.535-.477,1.43l-.4,1.1q-.592,1.744-1.65,4.62-.319.913-.7,1.943-1.164,3.073-2.715,7.186,2.741.7,5.024,1.173a83.279,83.279,0,0,0-1.943,18.552q.048,5.865-.22,11.586-.136,3.106-.367,6.16a63.734,63.734,0,0,1-3.08,15.362q-.482,1.423-1.027,2.823a119.725,119.725,0,0,0-5.28,18.259q-.847,4.365-1.43,8.763-.137,1.034-.257,2.053-.541,4.5-.807,9.056-.493,8.918-1.065,18.185c-.006.265-.019.534-.035.807l-.44-.073a12.511,12.511,0,0,1-1.943-.293,11.289,11.289,0,0,1-1.723-.587,6.85,6.85,0,0,1-2.713-2.566l-1.466-.953.072-19.505a1.645,1.645,0,0,1-.072-.513Q499.053,710.62,498.575,707.288Z" transform="translate(38.866 40.043)" fill="#003151" fill-rule="evenodd"/>
    <path id="Trazado_1620" data-name="Trazado 1620" d="M503.423,577.817a28.971,28.971,0,0,1-.7-5.39,9.214,9.214,0,0,0,1.393,1.027,3.8,3.8,0,0,1,.585.367,13.958,13.958,0,0,0,8.728,1.173.862.862,0,0,1,.33-.147h.037q.512-.22,1.1-.44,6.452-3.74,5.938-9.753l-.072-.073a27.152,27.152,0,0,0-.623-3.7l-5.61-10.816a3.018,3.018,0,0,0,2.933.953h.072c.078.1.153.2.221.293l.073.073v.037l4.986,13.749,5.94,1.687-5.721,3.666,2.641,6.123a21.337,21.337,0,0,1-7.626,2.53A30.2,30.2,0,0,1,503.423,577.817Z" transform="translate(40.946 29.604)" fill="#003151" fill-rule="evenodd"/>
    <path id="Trazado_1621" data-name="Trazado 1621" d="M516.47,681.48a45.554,45.554,0,0,1,1.65-5.976q2.642-7.039,3.666-10.559a34.732,34.732,0,0,0-.438-5.94q-.88-5.5-1.028-6.013l3.594-39.011a6.868,6.868,0,0,0,1.32-.44,26.007,26.007,0,0,0,6.123-4.18q-.3,1.327-.623,2.64a70.625,70.625,0,0,0,7.26-1.21q.354,1.4.733,2.823c.023.1.047.2.073.293a57.883,57.883,0,0,1,1.393,17.965,129.619,129.619,0,0,1-3.3,18.919q-2.052,8.139-4.62,16.206-.123.385-.257.77c-.107.348-.217.691-.331,1.027q-1.668,5.616-2.785,11.366-.4,2.057-.733,4.143a131.971,131.971,0,0,0-1.981,19.212q-.365,8.579-.072,17.012a15.774,15.774,0,0,1-4.033-1.247,37.266,37.266,0,0,1-5.206-2.933l-1.247-.807a64.917,64.917,0,0,0,1.467-20.972q-.158-1.617-.4-3.373-.312-2.268-.771-4.766A25.045,25.045,0,0,1,516.47,681.48Z" transform="translate(46.964 57.271)" fill="#003151" fill-rule="evenodd"/>
    <path id="Trazado_1622" data-name="Trazado 1622" d="M543.666,578.647a24.212,24.212,0,0,1-2.345,5.756v.22a16.623,16.623,0,0,1-.147,1.907,41.976,41.976,0,0,1,.513-5.353,21.28,21.28,0,0,0,0-6.6q-.587-3.667-.955-5.353a30.85,30.85,0,0,0-1.208-3.666l-.625-1.613q-.438-1.025-.878-1.906-.26-.592-.55-1.137l-.33-.623a14.85,14.85,0,0,0-1.393-2.053,21.9,21.9,0,0,0-5.72-4.913h.072a25.345,25.345,0,0,1,4.328,2.127,24.437,24.437,0,0,1,5.353,3.886.471.471,0,0,0,.219.293q2.787,2.715,4.255,8.213a29.148,29.148,0,0,1-.073,8.506Q543.965,577.527,543.666,578.647Z" transform="translate(53.683 31.12)" fill="#003151" fill-rule="evenodd"/>
    <path id="Trazado_1623" data-name="Trazado 1623" d="M525.955,589.147h-.037a.863.863,0,0,0-.33.147,13.957,13.957,0,0,1-8.727-1.173,3.806,3.806,0,0,0-.585-.367,9.206,9.206,0,0,1-1.393-1.027,14.668,14.668,0,0,0-.513-3.153q-1.907-6.745-8.508-13.419-2.638-3.445-5.2-7.04-5.132-7.4-10.119-14.886a147.208,147.208,0,0,1-8.874-15.106q-1.03-2.02-2.052-4.07l-1.467-3.006q-.746-1.481-1.467-2.97l.035-.037q1.964-1.221,4.438-2.823c.44-.293.878-.562,1.32-.807q.568.867,1.1,1.65l5.5,8.029q2.053,2.787,7.406,10.926a132.835,132.835,0,0,0,7.918,11q8.067,9.827,11.074,13.566a79.249,79.249,0,0,1,7.04,9.9,25.514,25.514,0,0,1,3.226,8.653A26.706,26.706,0,0,1,525.955,589.147Zm43.19-5.5q-1.467-5.5-4.254-8.213a.471.471,0,0,1-.219-.293q.587-.88,1.393-1.906a129.852,129.852,0,0,0,7.625-11.806q9.9-19.431,10.194-20.9a22.031,22.031,0,0,1,1.1-3.74,33.6,33.6,0,0,0,1.172-3.52q.587-2.127,1.175-4.253.293-.88.513-1.613a23.81,23.81,0,0,1,4.84,2.86c-.065.415-.125.817-.183,1.21l-.33,1.906q-.884,5.194-1.54,7.663-2.64,9.974-7.919,16.132-.44.955-7.188,13.272a104.727,104.727,0,0,0-5.5,11A20.8,20.8,0,0,0,569.145,583.648Zm-87.407-59.4a1.857,1.857,0,0,0-.733,1.1,1.818,1.818,0,0,0,.367,1.32,1.6,1.6,0,0,0,1.173.66,1.467,1.467,0,0,0,1.247-.293,1.609,1.609,0,0,0,.66-1.173,1.472,1.472,0,0,0-.293-1.247,1.866,1.866,0,0,0-1.1-.733A1.829,1.829,0,0,0,481.738,524.252Zm54.555,72.925a22.83,22.83,0,0,0,3.631-1.357l9.056,20.9a174,174,0,0,1-2.055,28.415q-.24,1.566-.512,3.153c.535.063,1.073.123,1.612.183q1.047.121,2.128.257.422-1.916.805-3.813a211.293,211.293,0,0,0,3.666-26.142V618.7l7.847-34.318-6.086-2.933,3.3-1.833-4.766-10.486a21.9,21.9,0,0,1,5.72,4.913,14.85,14.85,0,0,1,1.393,2.053l.33.623q.29.546.55,1.137.44.88.878,1.906l.625,1.613a30.852,30.852,0,0,1,1.208,3.666q.367,1.687.955,5.353a21.284,21.284,0,0,1,0,6.6,41.966,41.966,0,0,0-.513,5.353l-.183,3.3q-.11,2.825-.22,5.793-.079,2.011-.147,4.106-.546,15.522-.7,35.051l-2.09.587q.9,4.833,1.357,9.826a78.841,78.841,0,0,1-.807,20.092q-1.687,9.754-3.888,19.359-.9,3.982-1.758,7.956-.389,1.8-.77,3.593-.733,3.313-1.43,6.636a81.386,81.386,0,0,0-1.541,9.459,51.569,51.569,0,0,1-1.538,8.213l-3.08,24.638-1.026.513a3.507,3.507,0,0,1-1.173.807,7.149,7.149,0,0,1-1.686.44,11.108,11.108,0,0,0-1.1-.22q-.293-8.432.072-17.012a131.963,131.963,0,0,1,1.981-19.212q.33-2.085.733-4.143,1.115-5.748,2.785-11.366c.115-.336.224-.679.331-1.027q.134-.385.257-.77,2.567-8.067,4.62-16.206a129.6,129.6,0,0,0,3.3-18.919,57.883,57.883,0,0,0-1.393-17.965c-.026-.1-.05-.2-.073-.293q-.378-1.425-.733-2.823a70.62,70.62,0,0,1-7.26,1.21q.326-1.313.623-2.64a26.01,26.01,0,0,1-6.123,4.18,6.868,6.868,0,0,1-1.32.44l-3.594,39.011q-.585,2.127-1.245,4.253-2.594,7.9-5.721,15.472-.508,1.216-1.025,2.42a59.146,59.146,0,0,0-4.766,18.919q-.048.812-.147,1.613-.147,1.617-.44,3.226a9.777,9.777,0,0,0-.221,1.247l-1.245,21.082v.11l-.955.587a7.394,7.394,0,0,0-1.1.367,29.435,29.435,0,0,0-3.518.513c.016-.273.029-.541.035-.807q.572-9.266,1.065-18.185.266-4.558.807-9.056.121-1.018.257-2.053.583-4.4,1.43-8.763a119.736,119.736,0,0,1,5.28-18.259q.546-1.4,1.027-2.823a63.735,63.735,0,0,0,3.08-15.362q.231-3.053.367-6.16.268-5.722.22-11.586a83.279,83.279,0,0,1,1.943-18.552q-2.286-.475-5.024-1.173,1.553-4.112,2.714-7.186.378-1.03.7-1.943,1.058-2.875,1.65-4.62l.4-1.1q.337-.9.477-1.43.66-3.3.659-3.373.882-5.572-.585-14.372t-1.1-11.073a47.921,47.921,0,0,1,2.273-8.139Zm52.358-59.359a1.179,1.179,0,0,0,1.1-.293,2.234,2.234,0,0,0,.733-1.32,1.711,1.711,0,0,0-.295-1.393,1.517,1.517,0,0,0-.952-.807,1.385,1.385,0,0,0-1.173.44,2.06,2.06,0,0,0-.66,1.247,2.153,2.153,0,0,0,.219,1.467A1.336,1.336,0,0,0,588.65,537.817Z" transform="translate(28.792 15.303)" fill="#00558c" fill-rule="evenodd"/>
    <path id="Trazado_1624" data-name="Trazado 1624" d="M469.7,509.925c.065-.015.125-.026.183-.037a3.477,3.477,0,0,1,.513-.037q-.392-.1-.771-.183h-.035c-.488-.125-.952-.235-1.393-.33q-1.905-.513-1.321-2.053A2.152,2.152,0,0,1,469,506.7a9.712,9.712,0,0,1,2.787.513,6.169,6.169,0,0,1,1.906.807q.44.44-.293,1.1a3.316,3.316,0,0,1-1.028.367l.075.293q1.905-.513,2.566.22a.837.837,0,0,0,.147.22.769.769,0,0,0-.073.44,9.1,9.1,0,0,0-1.027.513c-.364.141-.645.249-.843.33-.158.081-.267.142-.33.183q-.295.147-.22.22c.048-.048.048,0,0,.147h1.393a3.788,3.788,0,0,1,1.32.22q.147.147-.075.44a.708.708,0,0,1-.109.4.983.983,0,0,1-.183.183,14.229,14.229,0,0,1-2.493,1.76h-.037A7.66,7.66,0,0,1,470.319,513a4.669,4.669,0,0,1-1.283,0,2.147,2.147,0,0,1-.623-.22,1.211,1.211,0,0,1-.587-1.1,1.729,1.729,0,0,1,.733-1.173A2.173,2.173,0,0,1,469.7,509.925Zm10.963-4.033a24.993,24.993,0,0,1,3.007,6.16,27.686,27.686,0,0,1-2.787,4.18l-.513.22q-.442.147-1.247-1.613a9.635,9.635,0,0,1-.293-4.913,4.279,4.279,0,0,0-1.247-2.713,10.783,10.783,0,0,0-1.833-1.54q-3.3-2.273-3.446-2.933a.8.8,0,0,1-.073-.367c.1-.195.2-.293.293-.293q.733-.22,1.173-.367a9.873,9.873,0,0,1,3.227,1.137,10.85,10.85,0,0,1,1.613,1.027,15.866,15.866,0,0,1,1.833,1.65A4.115,4.115,0,0,1,480.658,505.892Zm73.255,60.716a4.032,4.032,0,0,1-.77.073h-.111l-.072-.073a1.221,1.221,0,0,0-.367.073l-3.595.293q-3.812.44-5.278.44-6.014.147-7.921-4.693a4.392,4.392,0,0,1-2.125.513,8.7,8.7,0,0,1-2.275,0q-3.372-3.225-2.2-5.94a2.009,2.009,0,0,1,2.421.66q.952,1.32,1.906.587a29.214,29.214,0,0,0,.587-5.646.477.477,0,0,1,0-.367,7.829,7.829,0,0,0-.515-2.053,1.309,1.309,0,0,0-.367-.733c.785-.977,1.467-1.785,2.055-2.42q5.06-5.352,15.839-3.666h.22a6.784,6.784,0,0,1,.585.88q3.3,4.107,3.521,10.853A37.723,37.723,0,0,1,553.913,566.607Zm44.437-35.2a10.463,10.463,0,0,0-2.86-2.567c-.488-.243-1.028-.488-1.613-.733a9.547,9.547,0,0,0-2.053-.807q.585-7.772.805-11.659a4.687,4.687,0,0,0,.075-.807q1.833.147,3.3-3.006c.147-.39.292-.782.44-1.173a.77.77,0,0,0,.147.293,11.714,11.714,0,0,0,1.247-2.347q.733-1.54,1.98-.44a9.027,9.027,0,0,1,0,4.326,15.5,15.5,0,0,0-.513,4.326l-.075.073h.075a12.26,12.26,0,0,0-.66,2.127,18.385,18.385,0,0,0-.073,5.426,21.528,21.528,0,0,1-.22,6.746Zm-68.122,27.278v-.147a2.007,2.007,0,0,0-.22.587q-.147,1.247,2.053,2.713h1.32c.048.343.122.22.219-.367a4.893,4.893,0,0,0-1.025-1.393A4.692,4.692,0,0,0,530.228,558.688Z" transform="translate(24.152 7.045)" fill="#ffaa83" fill-rule="evenodd"/>
    <path id="Trazado_1625" data-name="Trazado 1625" d="M514.715,551.011l-.073-.073a4.892,4.892,0,0,1-.733-1.173,11.014,11.014,0,0,1-1.54-3.006,7.366,7.366,0,0,0-1.541-2.933,8.7,8.7,0,0,0,2.275,0,4.392,4.392,0,0,0,2.125-.513q1.91,4.84,7.921,4.693,1.467,0,5.278-.44l3.594-.293a1.219,1.219,0,0,1,.367-.073l.072.073h.111a2.441,2.441,0,0,1,.55.073l-.44.293-.955.88a2.869,2.869,0,0,0-.145.367.065.065,0,0,0-.073.073,2.468,2.468,0,0,0,.66,2.42v.147a2.147,2.147,0,0,1-.808.147q-4.912.88-6.452,1.98a8.692,8.692,0,0,0-1.026,1.027l-8.066-2.86A2.067,2.067,0,0,1,514.715,551.011Z" transform="translate(44.725 26.454)" fill="#e1825f" fill-rule="evenodd"/>
    <path id="Trazado_1626" data-name="Trazado 1626" d="M551.864,566.008a2.44,2.44,0,0,0-.55-.073,4.041,4.041,0,0,0,.77-.073A.863.863,0,0,1,551.864,566.008Zm39.011-51.916a103.907,103.907,0,0,0,.147-10.779q2.052,0,2.64,2.713c.1.538.245,1.32.438,2.346v.147a6.927,6.927,0,0,0,.367,1.173.913.913,0,0,0,.148.22c-.148.392-.293.783-.44,1.173Q592.707,514.239,590.875,514.091Zm5.646,16.572v-.22a21.526,21.526,0,0,0,.22-6.746,18.383,18.383,0,0,1,.073-5.426,12.268,12.268,0,0,1,.66-2.127q.733-.147,2.053-1.833,1.172-1.393,2.346-1.027a1.3,1.3,0,0,1,.587,1.613,6.114,6.114,0,0,1-1.247,1.54,8.5,8.5,0,0,0-1.1,1.613c-.1.49.2.953.88,1.393q.44,1.1,2.127.953,1.905-.147,2.42.733.073,1.395-2.053,1.467-2.055.22-2.2,1.393a6.716,6.716,0,0,1-1.76,3.74q-.955,1.1-2.933,3.153A.544.544,0,0,1,596.521,530.663ZM475.858,511.378a1.179,1.179,0,0,1,.4.513q.295,1.687.367,1.907a8.1,8.1,0,0,0,1.54,2.346,2.5,2.5,0,0,1,.587,2.053,3.145,3.145,0,0,1-.148.807.487.487,0,0,0-.218.22l-.367.073a6.511,6.511,0,0,1-1.248-.147q-1.172-.145-4.178-2.86a22.925,22.925,0,0,1-1.943-1.98h.037a14.229,14.229,0,0,0,2.493-1.76.982.982,0,0,0,.183-.183l.037.037a2.673,2.673,0,0,0,.66.073,2.353,2.353,0,0,0,1.027-.367A3.831,3.831,0,0,0,475.858,511.378Zm73.66,31.531h-.22q-10.779-1.685-15.839,3.666c-.588.635-1.27,1.443-2.055,2.42a5.014,5.014,0,0,0-1.245-1.76c0-.048-.048-.073-.147-.073a17.4,17.4,0,0,1,7.113-5.573,20.979,20.979,0,0,1,5.426-1.32A8.324,8.324,0,0,1,549,542.4a.065.065,0,0,1,.075.073C549.224,542.616,549.37,542.763,549.518,542.909ZM528.4,557.942a4.692,4.692,0,0,1,2.346,1.393,4.893,4.893,0,0,1,1.025,1.393c-.1.587-.17.71-.219.367h-1.32q-2.2-1.465-2.053-2.713a2.007,2.007,0,0,1,.22-.587Zm22.512,12.246a6.068,6.068,0,0,1-.77,5.536l-.33-.33-.147.33-7.039-2.383a8.69,8.69,0,0,1,1.027-1.027q1.54-1.1,6.451-1.98A2.147,2.147,0,0,0,550.911,570.187Z" transform="translate(25.981 7.792)" fill="#ed9870" fill-rule="evenodd"/>
    <path id="Trazado_1627" data-name="Trazado 1627" d="M486.131,521.012q-.5-.634-.99-1.283-1.311.948-3.263,2.273-1.254-1.907-2.678-4.106a16.967,16.967,0,0,0-1.172-1.687q1.98-1.393,3.005-1.98l.441-.367A66.515,66.515,0,0,0,486.131,521.012Zm61.339,44.107a3.069,3.069,0,0,1,2.125,1.467,23.829,23.829,0,0,1,1.1,2.566c.1.343.2.635.295.88a26.181,26.181,0,0,1,1.393,4.18,13.654,13.654,0,0,1,.145,4.84l-.733-1.027L550,575.568q-.02-.475-.038-1.063a.648.648,0,0,0,0-.44L546.7,570.8a6.068,6.068,0,0,0,.77-5.536Zm-17.452-.367a2.067,2.067,0,0,0,1.1.807l8.066,2.86,7.04,2.383-1.833,3.776a1.521,1.521,0,0,0,.037.22l-2.017,3.593-.66,1.1L529.138,567.9c0-.2-.39-.587-1.175-1.173ZM546.3,647.723q1.914-.055,4.033-.22-.381,1.9-.805,3.813-1.082-.136-2.128-.257c-.538-.06-1.076-.12-1.612-.183Q546.054,649.29,546.3,647.723Z" transform="translate(29.422 12.714)" fill="#fff" fill-rule="evenodd"/>
    <path id="Trazado_1628" data-name="Trazado 1628" d="M481.135,520.135q1.949-1.326,3.263-2.273.486.649.99,1.283l.585.77q1.923,2.47,4.071,4.766a98.2,98.2,0,0,1,10.486,13.859,92.362,92.362,0,0,0,11,14.006,161.234,161.234,0,0,0,13.639,12.172,2.669,2.669,0,0,0,.147.367l5.61,10.816a27.171,27.171,0,0,1,.623,3.7l.072.073q.515,6.012-5.938,9.753-.587.22-1.1.44a26.7,26.7,0,0,0-.22-6.013,25.517,25.517,0,0,0-3.226-8.653,79.266,79.266,0,0,0-7.039-9.9q-3.007-3.74-11.074-13.566a132.815,132.815,0,0,1-7.918-11q-5.354-8.139-7.406-10.926l-5.5-8.03q-.532-.783-1.1-1.65Zm47.26,45.9,12.613,11.586.66-1.1q.878,3.227,1.685,6.453.264,1.06.515,2.126c-.166.2-.336.4-.515.587a29.28,29.28,0,0,1-5.718,5.28,13.105,13.105,0,0,1-1.173.7l-2.641-6.123,5.721-3.666-5.94-1.687-4.986-13.749v-.037l-.073-.073c-.069-.1-.144-.193-.221-.293Zm24.857,53.383a191.5,191.5,0,0,0-.585-35.931q-.222-1.32-.367-2.64-.222-1.832-.515-3.666a13.654,13.654,0,0,0-.145-4.84,26.194,26.194,0,0,0-1.393-4.18l.805.367a22.235,22.235,0,0,1,2.495,1.32l4.766,10.486-3.3,1.833L561.1,585.1ZM563.3,575.865a24.435,24.435,0,0,0-5.353-3.886,25.34,25.34,0,0,0-4.328-2.127q1.687-2.273,5.354-6.526,3.885-4.472,5.573-6.673,6.452-8.212,8.433-15.179,5.057-9.092,6.3-11.073l1.248-2.2q.587-1.062,1.173-2.053h.037q2.611,1.029,4.73,1.98-.22.735-.513,1.613-.585,2.127-1.175,4.253a33.589,33.589,0,0,1-1.172,3.52,22.024,22.024,0,0,0-1.1,3.74q-.293,1.467-10.194,20.9a129.815,129.815,0,0,1-7.625,11.806Q563.885,574.985,563.3,575.865Zm-82.934-50.89a1.829,1.829,0,0,1,1.32-.367,1.866,1.866,0,0,1,1.1.733,1.472,1.472,0,0,1,.293,1.247,1.609,1.609,0,0,1-.66,1.173,1.466,1.466,0,0,1-1.247.293,1.6,1.6,0,0,1-1.173-.66,1.818,1.818,0,0,1-.367-1.32A1.857,1.857,0,0,1,480.365,524.975Zm58.186,71.568a17.317,17.317,0,0,0,5.83-4.473q.38-.451.733-.917a150.917,150.917,0,0,1,2.493,26.288Zm48.727-58a1.336,1.336,0,0,1-1.028-.66,2.153,2.153,0,0,1-.219-1.467,2.061,2.061,0,0,1,.66-1.247,1.385,1.385,0,0,1,1.173-.44,1.517,1.517,0,0,1,.952.807,1.711,1.711,0,0,1,.295,1.393,2.234,2.234,0,0,1-.733,1.32A1.178,1.178,0,0,1,587.277,538.541Z" transform="translate(30.165 14.58)" fill="#0d69a5" fill-rule="evenodd"/>
    <path id="Trazado_1629" data-name="Trazado 1629" d="M521.079,698.748l-1.393-1.393.587-3.593a13.022,13.022,0,0,0,4.913,2.2l2.566.44q4.327.44,6.893.807c.44.048.807.1,1.1.147a2.706,2.706,0,0,0,.367.147,52.922,52.922,0,0,0,11.659,2.933,40.517,40.517,0,0,0,12.466-.587,11.4,11.4,0,0,1-.147,1.98,36.167,36.167,0,0,1-13.272.367,94.375,94.375,0,0,1-12.832-2.933,10.744,10.744,0,0,1-6.526.88A36.6,36.6,0,0,1,521.079,698.748ZM498.933,696.4a8.041,8.041,0,0,0,1.688,1.76q.585.367,1.907,1.247,2.42,3.96,8.653,4.4a36.789,36.789,0,0,0,5.5-.147q3.52-.22,5.133-.367a14.42,14.42,0,0,0-.148,1.467q-.365.807-1.025.66-7.919.295-9.386.147a16.093,16.093,0,0,1-8.8-2.86,3.748,3.748,0,0,1-3.373-2.127A5.58,5.58,0,0,1,498.933,696.4Z" transform="translate(39.02 96.649)" fill="#020202" fill-rule="evenodd"/>
    <path id="Trazado_1630" data-name="Trazado 1630" d="M574.035,741.579l.219-.367a19.179,19.179,0,0,1-2.125,5.06A15.717,15.717,0,0,1,574.035,741.579Z" transform="translate(73.325 118.788)" fill="#713d22" fill-rule="evenodd"/>
    <path id="Trazado_1631" data-name="Trazado 1631" d="M471.749,514.976a22.93,22.93,0,0,0,1.943,1.98q3,2.712,4.178,2.86a6.511,6.511,0,0,0,1.248.147l.367-.073a.487.487,0,0,1,.218-.22,3.145,3.145,0,0,0,.148-.807,2.5,2.5,0,0,0-.587-2.053,8.1,8.1,0,0,1-1.54-2.346q-.073-.22-.367-1.907a1.179,1.179,0,0,0-.4-.513,1.443,1.443,0,0,0,.112-.147,1.768,1.768,0,0,0,.293-1.247l-.513-3.52a4.279,4.279,0,0,1,1.247,2.713,9.635,9.635,0,0,0,.293,4.913q.805,1.76,1.247,1.613l.513-.22a27.683,27.683,0,0,0,2.787-4.18,25,25,0,0,0-3.007-6.16c.16.114.308.213.44.293q2.64,1.76,3.226,6.746.44,3.08.587,3.666a7.643,7.643,0,0,0,1.392,3.3q-1.023.587-3.005,1.98a.837.837,0,0,0-.22.147l-.808.587a7.925,7.925,0,0,1-4.178,1.613q-.805-1.393-4.621-4.4a11.167,11.167,0,0,1-3.812-4.986,18.7,18.7,0,0,1-.623-1.833,4.669,4.669,0,0,0,1.283,0A7.66,7.66,0,0,0,471.749,514.976Zm-2.6-5.17c-.059.01-.119.022-.183.037a1.76,1.76,0,0,1-.11-.257h.035Zm8.653-6.013a10.845,10.845,0,0,0-1.613-1.027l-.11-.88c.082.087.169.172.257.257Q477.135,503.079,477.8,503.794Z" transform="translate(24.884 7.127)" fill="#ffb087" fill-rule="evenodd"/>
    <path id="Trazado_1632" data-name="Trazado 1632" d="M526.144,562.745l-4.216-3.74,2.017-3.593a18.735,18.735,0,0,0,1.65,3.74,2.856,2.856,0,0,0,.623.037q.059.464.11.99A14.229,14.229,0,0,1,526.144,562.745Zm5.168-4.106-1.245,7.553-.733-.623a11.428,11.428,0,0,0-.073-5.9q-.193-.638-.367-1.173c.408-.185.629-.356.66-.513q0-.172-.037-1.8Z" transform="translate(49.904 32.1)" fill="#9999ef" fill-rule="evenodd"/>
    <path id="Trazado_1633" data-name="Trazado 1633" d="M612.381,698.012l-.257.037-103.8,18.3V968.667l103.8-18.967V757.615c.088-.028.167-.072.257-.1Z" transform="translate(43.559 98.632)" fill="#ed428b" fill-rule="evenodd"/>
  </g>
</svg>
