<svg xmlns="http://www.w3.org/2000/svg" width="121" height="121" viewBox="0 0 121 121">
  <g id="Grupo_10035" data-name="Grupo 10035" transform="translate(-145 -1928)">
    <g id="Grupo_10008" data-name="Grupo 10008" transform="translate(2406 5835)">
      <circle id="Elipse_497" data-name="Elipse 497" cx="60.5" cy="60.5" r="60.5" transform="translate(-2261 -3907)" fill="#7cb342"/>
      <path id="Trazado_1178" data-name="Trazado 1178" d="M53.993,0A53.993,53.993,0,1,1,0,53.993,53.993,53.993,0,0,1,53.993,0Z" transform="translate(-2254 -3900)" fill="#fff"/>
    </g>
    <g id="Grupo_10017" data-name="Grupo 10017" transform="translate(232.229 1517.624)">
      <path id="Trazado_1587" data-name="Trazado 1587" d="M-20.365,478.2,3.4,489.316l-8.312,3.494,7.729,10.006-4.764,4.076-7.729-10.535-5.347,7.041Z" fill="#7cb342" fill-rule="evenodd"/>
      <path id="Trazado_1588" data-name="Trazado 1588" d="M-26.876,465.282a5.074,5.074,0,0,0-4.765,4.712,5.181,5.181,0,0,0,4.765,5.241,5.276,5.276,0,0,0,5.346-5.241C-21.53,467.611-23.912,465.282-26.876,465.282Z" fill="#002b45" fill-rule="evenodd"/>
      <path id="Trazado_1589" data-name="Trazado 1589" d="M-21.53,489.316a16.747,16.747,0,0,1-5.347.583,20.409,20.409,0,0,1-13.658-5.876,18.964,18.964,0,0,1-5.929-13.447c0-5.294,2.382-9.953,5.929-14.082a19.983,19.983,0,0,1,13.658-5.241c5.347,0,10.694,1.747,14.241,5.241,3.547,4.129,5.929,8.788,5.929,14.082,0,2.912-1.164,5.823-2.382,8.788l4.182,2.329a23.711,23.711,0,0,0,2.965-11.117c0-13.5-11.276-24.034-24.935-24.034-13.076,0-24.352,10.535-24.352,24.034,0,12.864,11.276,24.034,24.352,24.034,2.383,0,4.13-.582,5.93-.582Z" fill="#002b45" fill-rule="evenodd"/>
      <path id="Trazado_1590" data-name="Trazado 1590" d="M-26.877,455.912a14.475,14.475,0,0,0-14.24,14.664,14.429,14.429,0,0,0,14.24,14.611c1.8,0,2.965-.582,4.13-.582l-1.165-4.659a26.537,26.537,0,0,1-2.965.583c-5.346,0-9.529-4.712-9.529-9.953,0-5.876,4.183-9.953,9.529-9.953,5.93,0,10.112,4.077,10.112,9.953a6.766,6.766,0,0,1-1.218,4.659l4.765,1.8a21.616,21.616,0,0,0,1.164-6.459A14.6,14.6,0,0,0-26.877,455.912Z" fill="#002b45" fill-rule="evenodd"/>
    </g>
  </g>
</svg>
