<svg xmlns="http://www.w3.org/2000/svg" width="121" height="121" viewBox="0 0 121 121">
  <g id="Grupo_10039" data-name="Grupo 10039" transform="translate(-145 -2659)">
    <g id="Grupo_10016" data-name="Grupo 10016" transform="translate(2406 6566)">
      <circle id="Elipse_497" data-name="Elipse 497" cx="60.5" cy="60.5" r="60.5" transform="translate(-2261 -3907)" fill="#7cb342"/>
      <path id="Trazado_1178" data-name="Trazado 1178" d="M53.993,0A53.993,53.993,0,1,1,0,53.993,53.993,53.993,0,0,1,53.993,0Z" transform="translate(-2254 -3900)" fill="#fff"/>
    </g>
    <g id="Grupo_10020" data-name="Grupo 10020" transform="translate(182 2695)">
      <rect id="Rectángulo_2739" data-name="Rectángulo 2739" width="39.029" height="41.512" transform="translate(8.65 7.16)" fill="#002b45"/>
      <rect id="Rectángulo_2740" data-name="Rectángulo 2740" width="30.337" height="27.192" transform="translate(12.996 17.176)" fill="#fff"/>
      <rect id="Rectángulo_2741" data-name="Rectángulo 2741" width="18.79" height="2.856" transform="translate(18.79 37.208)" fill="#7cb342"/>
      <rect id="Rectángulo_2742" data-name="Rectángulo 2742" width="18.79" height="4.304" transform="translate(18.79 28.64)" fill="#7cb342"/>
      <rect id="Rectángulo_2743" data-name="Rectángulo 2743" width="18.79" height="2.897" transform="translate(18.79 22.887)" fill="#7cb342"/>
      <path id="Trazado_1596" data-name="Trazado 1596" d="M206.438,558.2V518.134h37.539v-4.3H202.092V558.2Z" transform="translate(-202.092 -513.83)" fill="#002b45" fill-rule="evenodd"/>
    </g>
  </g>
</svg>
